<?xml version="1.0" encoding="iso-8859-1"?>
<!-- Generator: Adobe Illustrator 19.0.0, SVG Export Plug-In . SVG Version: 6.00 Build 0)  -->
<svg version="1.1" id="Capa_1" xmlns="http://www.w3.org/2000/svg" xmlns:xlink="http://www.w3.org/1999/xlink" x="0px" y="0px"
	 viewBox="0 0 464 464" style="enable-background:new 0 0 464 464;" xml:space="preserve">
<g>
	<g>
		<path d="M232,0c-57.344,0-104,46.656-104,104c0,55.44,94.04,160.88,98.048,165.344c1.512,1.688,3.68,2.656,5.952,2.656
			c2.272,0,4.44-0.968,5.952-2.656C241.96,264.88,336,159.44,336,104C336,46.656,289.344,0,232,0z M232,251.88
			c-29.192-33.784-88-109.72-88-147.88c0-48.52,39.48-88,88-88s88,39.48,88,88C320,142.136,261.192,218.088,232,251.88z"/>
	</g>
</g>
<g>
	<g>
		<path d="M232,32c-39.696,0-72,32.296-72,72s32.304,72,72,72c39.704,0,72-32.296,72-72S271.704,32,232,32z M232,160
			c-30.88,0-56-25.128-56-56s25.12-56,56-56c30.872,0,56,25.128,56,56S262.872,160,232,160z"/>
	</g>
</g>
<g>
	<g>
		<path d="M104,400h256c22.056,0,40-17.944,40-40c0-22.056-17.944-40-40-40H104c-13.232,0-24-10.768-24-24s10.768-24,24-24h96
			c4.416,0,8-3.576,8-8s-3.584-8-8-8h-96c-22.056,0-40,17.944-40,40c0,22.056,17.944,40,40,40h256c13.232,0,24,10.768,24,24
			s-10.768,24-24,24H104c-22.056,0-40,17.944-40,40c0,22.056,17.944,40,40,40h256c4.424,0,8-3.576,8-8s-3.576-8-8-8H104
			c-13.232,0-24-10.768-24-24S90.768,400,104,400z"/>
	</g>
</g>
<g>
</g>
<g>
</g>
<g>
</g>
<g>
</g>
<g>
</g>
<g>
</g>
<g>
</g>
<g>
</g>
<g>
</g>
<g>
</g>
<g>
</g>
<g>
</g>
<g>
</g>
<g>
</g>
<g>
</g>
</svg>
