<?xml version="1.0" encoding="UTF-8" standalone="no"?>
<!DOCTYPE svg PUBLIC "-//W3C//DTD SVG 1.1//EN" "http://www.w3.org/Graphics/SVG/1.1/DTD/svg11.dtd">
<svg version="1.1" xmlns="http://www.w3.org/2000/svg" xmlns:xlink="http://www.w3.org/1999/xlink" preserveAspectRatio="xMidYMid meet" viewBox="0 0 640 640" width="640" height="640"><defs><path d="M331.75 0.48L337.53 1.07L343.24 1.88L348.87 2.92L354.43 4.18L359.9 5.65L365.29 7.33L370.59 9.21L375.78 11.29L380.88 13.57L385.87 16.04L390.74 18.69L395.51 21.52L400.15 24.53L404.66 27.71L409.05 31.06L413.3 34.57L417.42 38.24L421.38 42.06L425.21 46.03L428.87 50.15L432.39 54.4L435.73 58.79L438.92 63.3L441.93 67.94L444.76 72.7L447.41 77.58L449.88 82.57L452.16 87.67L454.24 92.86L456.12 98.16L457.8 103.54L459.27 109.02L460.53 114.58L461.57 120.21L462.38 125.92L462.97 131.7L463.33 137.54L463.45 143.45L463.21 149.31L462.51 155.41L461.37 161.73L459.81 168.25L457.86 174.95L455.55 181.81L452.89 188.81L449.91 195.94L446.64 203.17L443.09 210.48L439.3 217.85L435.28 225.27L431.06 232.71L426.67 240.16L422.12 247.59L417.44 254.99L412.65 262.33L407.79 269.6L402.86 276.78L397.9 283.85L392.93 290.78L387.98 297.56L383.06 304.17L378.2 310.59L373.43 316.81L368.77 322.79L364.23 328.52L359.86 333.99L355.66 339.16L351.67 344.03L347.91 348.57L344.4 352.77L341.16 356.6L338.22 360.04L335.61 363.08L333.34 365.69L331.44 367.86L329.94 369.57L328.85 370.79L328.21 371.51L328.05 371.68L327.89 371.85L327.73 372.02L327.56 372.18L327.39 372.33L327.21 372.49L327.04 372.64L326.86 372.78L326.67 372.93L326.49 373.06L326.3 373.2L326.11 373.33L325.92 373.45L325.72 373.57L325.52 373.69L325.32 373.8L325.12 373.91L324.91 374.02L324.71 374.12L324.5 374.21L324.29 374.31L324.07 374.39L323.86 374.48L323.64 374.55L323.42 374.63L323.21 374.7L322.98 374.76L322.76 374.82L322.54 374.88L322.31 374.93L322.08 374.97L321.86 375.01L321.63 375.05L321.4 375.08L321.17 375.11L320.94 375.13L320.7 375.15L320.47 375.16L320.23 375.17L320 375.17L319.77 375.17L319.53 375.16L319.3 375.15L319.06 375.13L318.83 375.11L318.6 375.08L318.37 375.05L318.14 375.01L317.92 374.97L317.69 374.93L317.46 374.88L317.24 374.82L317.02 374.76L316.79 374.7L316.58 374.63L316.36 374.55L316.14 374.48L315.93 374.39L315.71 374.31L315.5 374.21L315.29 374.12L315.09 374.02L314.88 373.91L314.68 373.8L314.48 373.69L314.28 373.57L314.08 373.45L313.89 373.33L313.7 373.2L313.51 373.06L313.33 372.93L313.14 372.78L312.96 372.64L312.79 372.49L312.61 372.33L312.44 372.18L312.27 372.02L312.11 371.85L311.95 371.68L311.79 371.51L311.15 370.79L310.06 369.57L308.56 367.86L306.66 365.69L304.39 363.08L301.78 360.04L298.84 356.6L295.6 352.77L292.09 348.57L288.33 344.03L284.34 339.16L280.14 333.99L275.77 328.52L271.23 322.79L266.57 316.81L261.8 310.59L256.94 304.17L252.02 297.56L247.07 290.78L242.1 283.85L237.14 276.78L232.21 269.6L227.35 262.33L222.56 254.99L217.88 247.59L213.33 240.16L208.94 232.71L204.72 225.27L200.7 217.85L196.91 210.48L193.36 203.17L190.09 195.94L187.11 188.81L184.45 181.81L182.14 174.95L180.19 168.25L178.63 161.73L177.49 155.41L176.79 149.31L176.55 143.45L176.67 137.54L177.03 131.7L177.62 125.92L178.43 120.21L179.47 114.58L180.73 109.02L182.2 103.54L183.88 98.16L185.76 92.86L187.84 87.67L190.12 82.57L192.59 77.58L195.24 72.7L198.07 67.94L201.08 63.3L204.27 58.79L207.61 54.4L211.13 50.15L214.79 46.03L218.62 42.06L222.58 38.24L226.7 34.57L230.95 31.06L235.34 27.71L239.85 24.53L244.49 21.52L249.26 18.69L254.13 16.04L259.12 13.57L264.22 11.29L269.41 9.21L274.71 7.33L280.1 5.65L285.57 4.18L291.13 2.92L296.76 1.88L302.47 1.07L308.25 0.48L314.1 0.12L320 0L325.9 0.12L331.75 0.48ZM310.06 22.47L305.17 22.97L300.34 23.66L295.57 24.54L290.87 25.6L286.24 26.85L281.68 28.27L277.2 29.86L272.8 31.62L268.49 33.55L264.27 35.64L260.14 37.88L256.11 40.28L252.18 42.83L248.36 45.52L244.65 48.35L241.05 51.32L237.57 54.43L234.21 57.66L230.98 61.02L227.88 64.5L224.91 68.1L222.07 71.81L219.38 75.63L216.83 79.56L214.43 83.59L212.19 87.72L210.1 91.94L208.18 96.25L206.41 100.65L204.82 105.13L203.4 109.68L202.15 114.32L201.09 119.02L200.21 123.79L199.52 128.62L199.02 133.51L198.72 138.45L198.62 143.45L198.77 147.49L199.21 151.72L199.94 156.12L200.93 160.69L202.18 165.41L203.68 170.28L205.42 175.28L207.38 180.4L209.55 185.63L211.92 190.97L214.49 196.4L217.23 201.91L220.14 207.49L223.2 213.14L226.41 218.83L229.75 224.56L233.21 230.33L236.78 236.11L240.45 241.91L244.21 247.7L248.04 253.48L251.94 259.24L255.89 264.97L259.88 270.65L263.9 276.28L267.94 281.85L271.98 287.35L276.03 292.76L280.05 298.08L284.05 303.29L288.01 308.39L291.91 313.37L295.76 318.21L299.54 322.9L303.22 327.44L306.82 331.81L310.3 336L313.67 340.01L316.91 343.82L320 347.42L323.09 343.82L326.33 340.01L329.7 336L333.18 331.8L336.78 327.43L340.46 322.89L344.24 318.2L348.09 313.36L351.99 308.38L355.95 303.28L359.95 298.07L363.97 292.75L368.02 287.34L372.06 281.84L376.1 276.27L380.12 270.64L384.11 264.95L388.06 259.22L391.96 253.46L395.79 247.68L399.55 241.89L403.22 236.1L406.79 230.31L410.25 224.55L413.59 218.81L416.8 213.12L419.86 207.48L422.77 201.89L425.51 196.38L428.08 190.96L430.45 185.62L432.62 180.39L434.58 175.26L436.32 170.27L437.82 165.4L439.07 160.68L440.06 156.12L440.79 151.72L441.23 147.49L441.38 143.45L441.28 138.45L440.98 133.51L440.48 128.62L439.79 123.79L438.91 119.02L437.85 114.32L436.6 109.68L435.18 105.13L433.59 100.65L431.83 96.25L429.9 91.94L427.81 87.72L425.57 83.59L423.17 79.56L420.62 75.63L417.93 71.81L415.09 68.1L412.12 64.5L409.02 61.02L405.79 57.66L402.43 54.43L398.95 51.32L395.35 48.35L391.64 45.52L387.82 42.83L383.89 40.28L379.86 37.88L375.73 35.64L371.51 33.55L367.2 31.62L362.8 29.86L358.32 28.27L353.76 26.85L349.13 25.6L344.43 24.54L339.66 23.66L334.83 22.97L329.94 22.47L325 22.17L320 22.07L315 22.17L310.06 22.47Z" id="fIdN4icXs"></path><path d="M328.13 44.47L332.14 44.88L336.09 45.44L339.99 46.16L343.84 47.03L347.63 48.05L351.36 49.21L355.02 50.51L358.62 51.95L362.15 53.53L365.6 55.24L368.98 57.08L372.28 59.04L375.49 61.12L378.62 63.32L381.65 65.64L384.6 68.07L387.44 70.61L390.19 73.26L392.84 76L395.38 78.85L397.81 81.8L400.13 84.83L402.33 87.96L404.41 91.17L406.37 94.47L408.21 97.85L409.92 101.3L411.49 104.83L412.94 108.43L414.24 112.09L415.4 115.82L416.42 119.61L417.29 123.46L418.01 127.36L418.57 131.31L418.98 135.31L419.23 139.36L419.31 143.45L419.23 147.54L418.98 151.58L418.57 155.58L418.01 159.54L417.29 163.44L416.42 167.29L415.4 171.08L414.24 174.81L412.94 178.47L411.49 182.07L409.92 185.6L408.21 189.05L406.37 192.43L404.41 195.72L402.33 198.94L400.13 202.06L397.81 205.1L395.38 208.04L392.84 210.89L390.19 213.64L387.44 216.29L384.6 218.82L381.65 221.26L378.62 223.57L375.49 225.78L372.28 227.86L368.98 229.82L365.6 231.66L362.15 233.37L358.62 234.94L355.02 236.38L351.36 237.69L347.63 238.85L343.84 239.87L339.99 240.74L336.09 241.46L332.14 242.02L328.13 242.43L324.09 242.68L320 242.76L315.91 242.68L311.87 242.43L307.87 242.02L303.91 241.46L300.01 240.74L296.17 239.87L292.38 238.85L288.65 237.69L284.98 236.38L281.38 234.94L277.86 233.37L274.4 231.66L271.03 229.82L267.73 227.86L264.52 225.78L261.39 223.57L258.35 221.26L255.41 218.82L252.56 216.29L249.81 213.64L247.17 210.89L244.63 208.04L242.2 205.1L239.88 202.06L237.68 198.94L235.59 195.72L233.63 192.43L231.79 189.05L230.08 185.6L228.51 182.07L227.07 178.47L225.76 174.81L224.6 171.08L223.58 167.29L222.71 163.44L221.99 159.54L221.43 155.58L221.02 151.58L220.77 147.54L220.69 143.45L220.77 139.36L221.02 135.31L221.43 131.31L221.99 127.36L222.71 123.46L223.58 119.61L224.6 115.82L225.76 112.09L227.07 108.43L228.51 104.83L230.08 101.3L231.79 97.85L233.63 94.47L235.59 91.17L237.68 87.96L239.88 84.83L242.2 81.8L244.63 78.85L247.17 76L249.81 73.26L252.56 70.61L255.41 68.07L258.35 65.64L261.39 63.32L264.52 61.12L267.73 59.04L271.03 57.08L274.4 55.24L277.86 53.53L281.38 51.95L284.98 50.51L288.65 49.21L292.38 48.05L296.17 47.03L300.01 46.16L303.91 45.44L307.87 44.88L311.87 44.47L315.91 44.22L320 44.14L324.09 44.22L328.13 44.47ZM313.67 66.46L310.56 66.78L307.49 67.22L304.45 67.78L301.46 68.46L298.51 69.25L295.61 70.15L292.76 71.17L289.96 72.29L287.22 73.51L284.53 74.84L281.91 76.27L279.34 77.8L276.84 79.42L274.41 81.13L272.05 82.94L269.76 84.83L267.54 86.8L265.41 88.86L263.35 91L261.37 93.21L259.48 95.5L257.68 97.86L255.97 100.3L254.35 102.8L252.82 105.36L251.39 107.99L250.06 110.67L248.84 113.42L247.72 116.21L246.7 119.06L245.8 121.96L245.01 124.91L244.33 127.9L243.77 130.94L243.33 134.01L243.02 137.12L242.82 140.27L242.76 143.45L242.82 146.63L243.02 149.77L243.33 152.88L243.77 155.96L244.33 158.99L245.01 161.99L245.8 164.93L246.7 167.83L247.72 170.68L248.84 173.48L250.06 176.22L251.39 178.91L252.82 181.54L254.35 184.1L255.97 186.6L257.68 189.03L259.48 191.39L261.37 193.68L263.35 195.9L265.41 198.04L267.54 200.1L269.76 202.07L272.05 203.96L274.41 205.76L276.84 207.48L279.34 209.1L281.91 210.62L284.53 212.05L287.22 213.38L289.96 214.61L292.76 215.73L295.61 216.74L298.51 217.65L301.46 218.44L304.45 219.12L307.49 219.68L310.56 220.12L313.67 220.43L316.82 220.63L320 220.69L323.18 220.63L326.32 220.43L329.44 220.12L332.51 219.68L335.54 219.12L338.54 218.44L341.48 217.65L344.38 216.74L347.24 215.73L350.03 214.61L352.78 213.38L355.46 212.05L358.09 210.62L360.65 209.1L363.15 207.48L365.58 205.76L367.95 203.96L370.24 202.07L372.45 200.1L374.59 198.04L376.65 195.9L378.62 193.68L380.51 191.39L382.32 189.03L384.03 186.6L385.65 184.1L387.18 181.54L388.61 178.91L389.93 176.22L391.16 173.48L392.28 170.68L393.3 167.83L394.2 164.93L394.99 161.99L395.67 158.99L396.23 155.96L396.67 152.88L396.98 149.77L397.18 146.63L397.24 143.45L397.18 140.27L396.98 137.12L396.67 134.01L396.23 130.94L395.67 127.9L394.99 124.91L394.2 121.96L393.3 119.06L392.28 116.21L391.16 113.42L389.93 110.67L388.61 107.99L387.18 105.36L385.65 102.8L384.03 100.3L382.32 97.86L380.51 95.5L378.62 93.21L376.65 91L374.59 88.86L372.45 86.8L370.24 84.83L367.95 82.94L365.58 81.13L363.15 79.42L360.65 77.8L358.09 76.27L355.46 74.84L352.78 73.51L350.03 72.29L347.24 71.17L344.38 70.15L341.48 69.25L338.54 68.46L335.54 67.78L332.51 67.22L329.44 66.78L326.32 66.46L323.18 66.27L320 66.21L316.82 66.27L313.67 66.46Z" id="bxjwkZRS2"></path><path d="M496.55 551.72C526.97 551.72 551.72 526.97 551.72 496.55C551.72 466.13 526.97 441.38 496.55 441.38C461.24 441.38 178.76 441.38 143.45 441.38C125.2 441.38 110.34 426.53 110.34 408.28C110.34 390.02 125.2 375.17 143.45 375.17C156.69 375.17 262.62 375.17 275.86 375.17C281.95 375.17 286.9 370.24 286.9 364.14C286.9 358.04 281.95 353.1 275.86 353.1C262.62 353.1 156.69 353.1 143.45 353.1C113.03 353.1 88.28 377.85 88.28 408.28C88.28 438.7 113.03 463.45 143.45 463.45C178.76 463.45 461.24 463.45 496.55 463.45C514.8 463.45 529.66 478.3 529.66 496.55C529.66 514.8 514.8 529.66 496.55 529.66C461.24 529.66 178.76 529.66 143.45 529.66C113.03 529.66 88.28 554.41 88.28 584.83C88.28 615.25 113.03 640 143.45 640C178.76 640 461.24 640 496.55 640C502.65 640 507.59 635.07 507.59 628.97C507.59 622.86 502.65 617.93 496.55 617.93C461.24 617.93 178.76 617.93 143.45 617.93C125.2 617.93 110.34 603.08 110.34 584.83C110.34 566.58 125.2 551.72 143.45 551.72C214.07 551.72 461.24 551.72 496.55 551.72Z" id="gVNi2Ia7k"></path></defs><g><g><g><use xlink:href="#fIdN4icXs" opacity="1" fill="#ffffff" fill-opacity="1"></use><g><use xlink:href="#fIdN4icXs" opacity="1" fill-opacity="0" stroke="#000000" stroke-width="1" stroke-opacity="0"></use></g></g><g><use xlink:href="#bxjwkZRS2" opacity="1" fill="#ffffff" fill-opacity="1"></use><g><use xlink:href="#bxjwkZRS2" opacity="1" fill-opacity="0" stroke="#000000" stroke-width="1" stroke-opacity="0"></use></g></g><g><use xlink:href="#gVNi2Ia7k" opacity="1" fill="#ededed" fill-opacity="1"></use><g><use xlink:href="#gVNi2Ia7k" opacity="1" fill-opacity="0" stroke="#000000" stroke-width="1" stroke-opacity="0"></use></g></g></g></g></svg>