<?xml version="1.0" encoding="UTF-8" standalone="no"?>
<!DOCTYPE svg PUBLIC "-//W3C//DTD SVG 1.1//EN" "http://www.w3.org/Graphics/SVG/1.1/DTD/svg11.dtd">
<svg version="1.1" xmlns="http://www.w3.org/2000/svg" xmlns:xlink="http://www.w3.org/1999/xlink" preserveAspectRatio="xMidYMid meet" viewBox="0 0 640 640" width="640" height="640"><defs><path d="M485.74 169.85L485.57 170L485.4 170.15L485.23 170.29L485.06 170.43L484.88 170.57L484.7 170.7L484.52 170.82L484.34 170.95L484.16 171.07L483.97 171.18L483.78 171.29L483.59 171.4L483.4 171.5L483.21 171.6L483.01 171.7L482.82 171.79L482.62 171.87L482.42 171.96L482.22 172.04L482.02 172.11L481.82 172.18L481.61 172.25L481.41 172.31L481.2 172.37L481 172.42L480.79 172.48L480.58 172.52L480.38 172.56L480.17 172.6L479.96 172.64L479.75 172.67L479.54 172.69L479.33 172.72L479.11 172.73L478.9 172.75L478.69 172.76L478.48 172.76L478.27 172.77L478.06 172.76L477.84 172.76L477.63 172.75L477.42 172.73L477.21 172.72L477 172.69L476.79 172.67L476.58 172.64L476.37 172.6L476.16 172.56L475.95 172.52L475.74 172.48L475.54 172.42L475.33 172.37L475.13 172.31L474.92 172.25L474.72 172.18L474.52 172.11L474.31 172.04L474.11 171.96L473.92 171.87L473.72 171.79L473.52 171.7L473.33 171.6L473.14 171.5L472.94 171.4L472.75 171.29L472.57 171.18L472.38 171.07L472.2 170.95L472.01 170.82L471.83 170.7L471.65 170.57L471.48 170.43L471.3 170.29L471.13 170.15L470.96 170L470.79 169.85L470.63 169.69L470.47 169.53L470.15 169.21L469.85 168.87L469.57 168.52L469.3 168.16L469.05 167.8L468.82 167.43L468.6 167.05L468.4 166.67L468.21 166.28L468.04 165.88L467.89 165.48L467.75 165.08L467.63 164.67L467.52 164.25L467.43 163.84L467.36 163.42L467.3 163L467.26 162.58L467.24 162.16L467.23 161.73L467.24 161.31L467.26 160.89L467.3 160.46L467.36 160.04L467.43 159.63L467.52 159.21L467.63 158.8L467.75 158.39L467.89 157.98L468.04 157.58L468.21 157.19L468.4 156.8L468.6 156.41L468.82 156.03L469.05 155.66L469.3 155.3L469.57 154.94L469.85 154.6L470.15 154.26L470.47 153.93L494.71 129.69L494.42 129.25L494.14 128.82L493.86 128.37L493.59 127.93L493.32 127.49L493.05 127.04L492.79 126.59L492.53 126.13L492.28 125.67L492.03 125.22L491.78 124.75L491.54 124.29L491.31 123.82L491.07 123.35L490.84 122.88L490.62 122.41L490.4 121.93L490.19 121.45L489.97 120.97L489.77 120.48L489.57 120L489.37 119.51L489.18 119.02L488.99 118.52L488.81 118.03L488.63 117.53L488.45 117.03L488.28 116.53L488.12 116.03L487.96 115.52L487.8 115.01L487.65 114.5L487.51 113.99L487.37 113.47L487.23 112.96L487.1 112.44L486.98 111.92L486.86 111.4L486.74 110.87L486.63 110.34L452.41 110.34L451.96 110.34L451.51 110.31L451.06 110.26L450.62 110.2L450.19 110.12L449.76 110.02L449.34 109.91L448.92 109.78L448.52 109.64L448.12 109.48L447.72 109.3L447.34 109.11L446.96 108.91L446.6 108.69L446.24 108.46L445.89 108.22L445.56 107.96L445.23 107.69L444.91 107.41L444.61 107.12L444.31 106.81L444.03 106.49L443.76 106.17L443.51 105.83L443.26 105.48L443.03 105.13L442.81 104.76L442.61 104.38L442.42 104L442.25 103.61L442.09 103.21L441.94 102.8L441.81 102.39L441.7 101.96L441.6 101.54L441.52 101.1L441.46 100.66L441.42 100.22L441.39 99.77L441.38 99.31L441.39 98.85L441.42 98.4L441.46 97.96L441.52 97.52L441.6 97.08L441.7 96.66L441.81 96.23L441.94 95.82L442.09 95.41L442.25 95.01L442.42 94.62L442.61 94.24L442.81 93.86L443.03 93.49L443.26 93.14L443.51 92.79L443.76 92.45L444.03 92.13L444.31 91.81L444.61 91.5L444.91 91.21L445.23 90.93L445.56 90.66L445.89 90.4L446.24 90.16L446.6 89.93L446.96 89.71L447.34 89.51L447.72 89.32L448.12 89.14L448.52 88.98L448.92 88.84L449.34 88.71L449.76 88.6L450.19 88.5L450.62 88.42L451.06 88.36L451.51 88.31L451.96 88.29L452.41 88.28L486.63 88.28L486.74 87.75L486.86 87.23L486.98 86.7L487.1 86.18L487.23 85.66L487.37 85.15L487.51 84.63L487.65 84.12L487.8 83.61L487.96 83.1L488.12 82.59L488.28 82.09L488.45 81.59L488.63 81.09L488.81 80.59L488.99 80.1L489.18 79.6L489.37 79.11L489.57 78.62L489.77 78.14L489.97 77.65L490.19 77.17L490.4 76.69L490.62 76.21L490.84 75.74L491.07 75.27L491.31 74.8L491.54 74.33L491.78 73.87L492.03 73.41L492.28 72.95L492.53 72.49L492.79 72.04L493.05 71.58L493.32 71.14L493.59 70.69L493.86 70.25L494.14 69.81L494.42 69.37L494.71 68.93L470.47 44.69L470.15 44.36L469.85 44.02L469.57 43.68L469.3 43.32L469.05 42.96L468.82 42.59L468.6 42.21L468.4 41.82L468.21 41.43L468.04 41.04L467.89 40.64L467.75 40.23L467.63 39.82L467.52 39.41L467.43 38.99L467.36 38.58L467.3 38.16L467.26 37.73L467.24 37.31L467.23 36.89L467.24 36.47L467.26 36.04L467.3 35.62L467.36 35.2L467.43 34.78L467.52 34.37L467.63 33.95L467.75 33.54L467.89 33.14L468.04 32.74L468.21 32.34L468.4 31.95L468.6 31.57L468.82 31.19L469.05 30.82L469.3 30.46L469.57 30.1L469.85 29.75L470.15 29.42L470.47 29.09L470.79 28.77L471.13 28.47L471.48 28.19L471.84 27.92L472.2 27.67L472.57 27.44L472.95 27.22L473.33 27.02L473.72 26.83L474.12 26.66L474.52 26.51L474.92 26.37L475.33 26.25L475.75 26.14L476.16 26.05L476.58 25.98L477 25.92L477.42 25.88L477.84 25.86L478.27 25.85L478.69 25.86L479.11 25.88L479.54 25.92L479.96 25.98L480.37 26.05L480.79 26.14L481.2 26.25L481.61 26.37L482.02 26.51L482.42 26.66L482.81 26.83L483.2 27.02L483.59 27.22L483.97 27.44L484.34 27.67L484.7 27.92L485.06 28.19L485.4 28.47L485.74 28.77L486.07 29.09L510.31 53.33L510.75 53.04L511.18 52.76L511.63 52.48L512.07 52.21L512.51 51.94L512.96 51.67L513.41 51.41L513.87 51.15L514.33 50.9L514.79 50.65L515.25 50.4L515.71 50.16L516.18 49.93L516.65 49.69L517.12 49.46L517.59 49.24L518.07 49.02L518.55 48.81L519.03 48.6L519.52 48.39L520 48.19L520.49 47.99L520.98 47.8L521.48 47.61L521.97 47.43L522.47 47.25L522.97 47.07L523.47 46.9L523.97 46.74L524.48 46.58L524.99 46.42L525.5 46.27L526.01 46.13L526.53 45.99L527.04 45.85L527.56 45.72L528.08 45.6L528.6 45.48L529.13 45.36L529.66 45.25L529.66 11.03L529.66 10.58L529.69 10.13L529.74 9.68L529.8 9.24L529.88 8.81L529.98 8.38L530.09 7.96L530.22 7.54L530.36 7.14L530.52 6.74L530.7 6.34L530.89 5.96L531.09 5.58L531.31 5.22L531.54 4.86L531.78 4.51L532.04 4.18L532.31 3.85L532.59 3.53L532.88 3.23L533.19 2.94L533.51 2.65L533.83 2.38L534.17 2.13L534.52 1.88L534.87 1.65L535.24 1.43L535.62 1.23L536 1.04L536.39 0.87L536.79 0.71L537.2 0.56L537.61 0.43L538.04 0.32L538.46 0.22L538.9 0.14L539.34 0.08L539.78 0.04L540.23 0.01L540.69 0L541.15 0.01L541.6 0.04L542.04 0.08L542.48 0.14L542.92 0.22L543.34 0.32L543.77 0.43L544.18 0.56L544.59 0.71L544.99 0.87L545.38 1.04L545.76 1.23L546.14 1.43L546.51 1.65L546.86 1.88L547.21 2.13L547.55 2.38L547.87 2.65L548.19 2.94L548.5 3.23L548.79 3.53L549.07 3.85L549.34 4.18L549.6 4.51L549.84 4.86L550.07 5.22L550.29 5.58L550.49 5.96L550.68 6.34L550.86 6.74L551.02 7.14L551.16 7.54L551.29 7.96L551.4 8.38L551.5 8.81L551.58 9.24L551.64 9.68L551.69 10.13L551.71 10.58L551.72 11.03L551.72 45.25L552.25 45.36L552.77 45.48L553.3 45.6L553.82 45.72L554.34 45.85L554.85 45.99L555.37 46.13L555.88 46.27L556.39 46.42L556.9 46.58L557.41 46.74L557.91 46.9L558.41 47.07L558.91 47.25L559.41 47.43L559.9 47.61L560.4 47.8L560.89 47.99L561.38 48.19L561.86 48.39L562.35 48.6L562.83 48.81L563.31 49.02L563.79 49.24L564.26 49.46L564.73 49.69L565.2 49.93L565.67 50.16L566.13 50.4L566.59 50.65L567.05 50.9L567.51 51.15L567.96 51.41L568.42 51.67L568.86 51.94L569.31 52.21L569.75 52.48L570.19 52.76L570.63 53.04L571.07 53.33L595.31 29.09L595.64 28.77L595.98 28.47L596.32 28.19L596.68 27.92L597.04 27.67L597.41 27.44L597.79 27.22L598.18 27.02L598.57 26.83L598.96 26.66L599.36 26.51L599.77 26.37L600.18 26.25L600.59 26.14L601.01 26.05L601.42 25.98L601.84 25.92L602.27 25.88L602.69 25.86L603.11 25.85L603.53 25.86L603.96 25.88L604.38 25.92L604.8 25.98L605.22 26.05L605.63 26.14L606.05 26.25L606.46 26.37L606.86 26.51L607.26 26.66L607.66 26.83L608.05 27.02L608.43 27.22L608.81 27.44L609.18 27.67L609.54 27.92L609.9 28.19L610.25 28.47L610.58 28.77L610.91 29.09L611.23 29.42L611.53 29.75L611.81 30.1L612.08 30.46L612.33 30.82L612.56 31.19L612.78 31.57L612.98 31.95L613.17 32.34L613.34 32.74L613.49 33.14L613.63 33.54L613.75 33.95L613.86 34.37L613.95 34.78L614.02 35.2L614.08 35.62L614.12 36.04L614.14 36.47L614.15 36.89L614.14 37.31L614.12 37.73L614.08 38.16L614.02 38.58L613.95 38.99L613.86 39.41L613.75 39.82L613.63 40.23L613.49 40.64L613.34 41.04L613.17 41.43L612.98 41.82L612.78 42.21L612.56 42.59L612.33 42.96L612.08 43.32L611.81 43.68L611.53 44.02L611.23 44.36L610.91 44.69L586.67 68.93L586.96 69.37L587.24 69.81L587.52 70.25L587.79 70.69L588.06 71.14L588.33 71.58L588.59 72.04L588.85 72.49L589.1 72.95L589.35 73.41L589.6 73.87L589.84 74.33L590.07 74.8L590.31 75.27L590.54 75.74L590.76 76.21L590.98 76.69L591.19 77.17L591.4 77.65L591.61 78.14L591.81 78.62L592.01 79.11L592.2 79.6L592.39 80.1L592.57 80.59L592.75 81.09L592.93 81.59L593.1 82.09L593.26 82.59L593.42 83.1L593.58 83.61L593.73 84.12L593.87 84.63L594.01 85.15L594.15 85.66L594.28 86.18L594.4 86.7L594.52 87.23L594.64 87.75L594.75 88.28L628.97 88.28L629.42 88.29L629.87 88.31L630.32 88.36L630.76 88.42L631.19 88.5L631.62 88.6L632.04 88.71L632.46 88.84L632.86 88.98L633.26 89.14L633.66 89.32L634.04 89.51L634.42 89.71L634.78 89.93L635.14 90.16L635.49 90.4L635.82 90.66L636.15 90.93L636.47 91.21L636.77 91.5L637.06 91.81L637.35 92.13L637.62 92.45L637.87 92.79L638.12 93.14L638.35 93.49L638.57 93.86L638.77 94.24L638.96 94.62L639.13 95.01L639.29 95.41L639.44 95.82L639.57 96.23L639.68 96.66L639.78 97.08L639.86 97.52L639.92 97.96L639.96 98.4L639.99 98.85L640 99.31L639.99 99.77L639.96 100.22L639.92 100.66L639.86 101.1L639.78 101.54L639.68 101.96L639.57 102.39L639.44 102.8L639.29 103.21L639.13 103.61L638.96 104L638.77 104.38L638.57 104.76L638.35 105.13L638.12 105.48L637.87 105.83L637.62 106.17L637.35 106.49L637.06 106.81L636.77 107.12L636.47 107.41L636.15 107.69L635.82 107.96L635.49 108.22L635.14 108.46L634.78 108.69L634.42 108.91L634.04 109.11L633.66 109.3L633.26 109.48L632.86 109.64L632.46 109.78L632.04 109.91L631.62 110.02L631.19 110.12L630.76 110.2L630.32 110.26L629.87 110.31L629.42 110.34L628.97 110.34L594.75 110.34L594.64 110.87L594.52 111.4L594.4 111.92L594.28 112.44L594.15 112.96L594.01 113.47L593.87 113.99L593.73 114.5L593.58 115.01L593.42 115.52L593.26 116.03L593.1 116.53L592.93 117.03L592.75 117.53L592.57 118.03L592.39 118.52L592.2 119.02L592.01 119.51L591.81 120L591.61 120.48L591.4 120.97L591.19 121.45L590.98 121.93L590.76 122.41L590.54 122.88L590.31 123.35L590.07 123.82L589.84 124.29L589.6 124.75L589.35 125.21L589.1 125.67L588.85 126.13L588.59 126.59L588.33 127.04L588.06 127.49L587.79 127.93L587.52 128.37L587.24 128.82L586.96 129.25L586.67 129.69L610.91 153.93L611.23 154.26L611.53 154.6L611.81 154.94L612.08 155.3L612.33 155.66L612.56 156.03L612.78 156.41L612.98 156.8L613.17 157.19L613.34 157.58L613.49 157.98L613.63 158.39L613.75 158.8L613.86 159.21L613.95 159.63L614.02 160.04L614.08 160.46L614.12 160.89L614.14 161.31L614.15 161.73L614.14 162.16L614.12 162.58L614.08 163L614.02 163.42L613.95 163.84L613.86 164.25L613.75 164.67L613.63 165.08L613.49 165.48L613.34 165.88L613.17 166.28L612.98 166.67L612.78 167.05L612.56 167.43L612.33 167.8L612.08 168.16L611.81 168.52L611.53 168.87L611.23 169.21L610.91 169.53L610.75 169.69L610.59 169.85L610.42 170L610.25 170.15L610.08 170.29L609.9 170.43L609.73 170.57L609.55 170.7L609.37 170.82L609.18 170.95L609 171.07L608.81 171.18L608.62 171.29L608.44 171.4L608.24 171.5L608.05 171.6L607.86 171.7L607.66 171.79L607.46 171.87L607.26 171.96L607.06 172.04L606.86 172.11L606.66 172.18L606.46 172.25L606.25 172.31L606.05 172.37L605.84 172.42L605.64 172.48L605.43 172.52L605.22 172.56L605.01 172.6L604.8 172.64L604.59 172.67L604.38 172.69L604.17 172.72L603.96 172.73L603.75 172.75L603.54 172.76L603.32 172.76L603.11 172.77L602.9 172.76L602.69 172.76L602.48 172.75L602.26 172.73L602.05 172.72L601.84 172.69L601.63 172.67L601.42 172.64L601.21 172.6L601 172.56L600.8 172.52L600.59 172.48L600.38 172.42L600.17 172.37L599.97 172.31L599.77 172.25L599.56 172.18L599.36 172.11L599.16 172.04L598.96 171.96L598.76 171.87L598.56 171.79L598.37 171.7L598.17 171.6L597.98 171.5L597.79 171.4L597.6 171.29L597.41 171.18L597.22 171.07L597.04 170.95L596.86 170.82L596.68 170.7L596.5 170.57L596.32 170.43L596.15 170.29L595.98 170.15L595.81 170L595.64 169.85L595.47 169.69L595.31 169.53L571.07 145.29L570.63 145.58L570.19 145.86L569.75 146.14L569.31 146.41L568.86 146.68L568.42 146.95L567.96 147.21L567.51 147.47L567.05 147.72L566.59 147.97L566.13 148.22L565.67 148.46L565.2 148.69L564.73 148.93L564.26 149.16L563.79 149.38L563.31 149.6L562.83 149.81L562.35 150.03L561.86 150.23L561.38 150.43L560.89 150.63L560.4 150.82L559.9 151.01L559.41 151.19L558.91 151.37L558.41 151.55L557.91 151.72L557.41 151.88L556.9 152.04L556.39 152.2L555.88 152.35L555.37 152.49L554.85 152.63L554.34 152.77L553.82 152.9L553.3 153.02L552.77 153.14L552.25 153.26L551.72 153.37L551.72 187.59L551.71 188.04L551.69 188.49L551.64 188.94L551.58 189.38L551.5 189.81L551.4 190.24L551.29 190.66L551.16 191.08L551.02 191.48L550.86 191.88L550.68 192.28L550.49 192.66L550.29 193.04L550.07 193.4L549.84 193.76L549.6 194.11L549.34 194.44L549.07 194.77L548.79 195.09L548.5 195.39L548.19 195.69L547.87 195.97L547.55 196.24L547.21 196.49L546.86 196.74L546.51 196.97L546.14 197.19L545.76 197.39L545.38 197.58L544.99 197.75L544.59 197.91L544.18 198.06L543.77 198.19L543.34 198.3L542.92 198.4L542.48 198.48L542.04 198.54L541.6 198.58L541.15 198.61L540.69 198.62L540.23 198.61L539.78 198.58L539.34 198.54L538.9 198.48L538.46 198.4L538.04 198.3L537.61 198.19L537.2 198.06L536.79 197.91L536.39 197.75L536 197.58L535.62 197.39L535.24 197.19L534.87 196.97L534.52 196.74L534.17 196.49L533.83 196.24L533.51 195.97L533.19 195.69L532.88 195.39L532.59 195.09L532.31 194.77L532.04 194.44L531.78 194.11L531.54 193.76L531.31 193.4L531.09 193.04L530.89 192.66L530.7 192.28L530.52 191.88L530.36 191.48L530.22 191.08L530.09 190.66L529.98 190.24L529.88 189.81L529.8 189.38L529.74 188.94L529.69 188.49L529.66 188.04L529.66 187.59L529.66 153.37L529.13 153.26L528.6 153.14L528.08 153.02L527.56 152.9L527.04 152.77L526.53 152.63L526.01 152.49L525.5 152.35L524.99 152.2L524.48 152.04L523.97 151.88L523.47 151.72L522.97 151.55L522.47 151.37L521.97 151.19L521.48 151.01L520.98 150.82L520.49 150.63L520 150.43L519.52 150.23L519.03 150.03L518.55 149.81L518.07 149.6L517.59 149.38L517.12 149.16L516.65 148.93L516.18 148.69L515.71 148.46L515.25 148.22L514.79 147.97L514.33 147.72L513.87 147.47L513.41 147.21L512.96 146.95L512.51 146.68L512.07 146.41L511.63 146.14L511.18 145.86L510.75 145.58L510.31 145.29L486.07 169.53L485.91 169.69L485.74 169.85ZM537.98 66.32L536.65 66.45L535.33 66.64L534.03 66.88L532.74 67.17L531.48 67.51L530.24 67.9L529.02 68.33L527.82 68.81L526.64 69.34L525.49 69.91L524.37 70.52L523.27 71.17L522.2 71.87L521.15 72.6L520.14 73.38L519.16 74.19L518.21 75.03L517.29 75.91L516.41 76.83L515.57 77.78L514.76 78.76L513.98 79.77L513.25 80.82L512.55 81.89L511.9 82.99L511.29 84.11L510.72 85.26L510.19 86.44L509.71 87.64L509.28 88.86L508.89 90.1L508.55 91.37L508.26 92.65L508.02 93.95L507.83 95.27L507.7 96.6L507.61 97.95L507.59 99.31L507.61 100.67L507.7 102.02L507.83 103.35L508.02 104.67L508.26 105.97L508.55 107.26L508.89 108.52L509.28 109.76L509.71 110.98L510.19 112.18L510.72 113.36L511.29 114.51L511.9 115.63L512.55 116.73L513.25 117.8L513.98 118.85L514.76 119.86L515.57 120.84L516.41 121.79L517.29 122.71L518.21 123.59L519.16 124.43L520.14 125.24L521.15 126.02L522.2 126.75L523.27 127.45L524.37 128.1L525.49 128.71L526.64 129.28L527.82 129.81L529.02 130.29L530.24 130.72L531.48 131.11L532.74 131.45L534.03 131.74L535.33 131.98L536.65 132.17L537.98 132.3L539.33 132.39L540.69 132.41L542.05 132.39L543.4 132.3L544.73 132.17L546.05 131.98L547.35 131.74L548.63 131.45L549.9 131.11L551.14 130.72L552.36 130.29L553.56 129.81L554.74 129.28L555.89 128.71L557.01 128.1L558.11 127.45L559.18 126.75L560.23 126.02L561.24 125.24L562.22 124.43L563.17 123.59L564.09 122.71L564.97 121.79L565.81 120.84L566.62 119.86L567.4 118.85L568.13 117.8L568.83 116.73L569.48 115.63L570.09 114.51L570.66 113.36L571.19 112.18L571.67 110.98L572.1 109.76L572.49 108.52L572.83 107.26L573.12 105.97L573.36 104.67L573.55 103.35L573.68 102.02L573.77 100.67L573.79 99.31L573.77 97.95L573.68 96.6L573.55 95.27L573.36 93.95L573.12 92.65L572.83 91.37L572.49 90.1L572.1 88.86L571.67 87.64L571.19 86.44L570.66 85.26L570.09 84.11L569.48 82.99L568.83 81.89L568.13 80.82L567.4 79.77L566.62 78.76L565.81 77.78L564.97 76.83L564.09 75.91L563.17 75.03L562.22 74.19L561.24 73.38L560.23 72.6L559.18 71.87L558.11 71.17L557.01 70.52L555.89 69.91L554.74 69.34L553.56 68.81L552.36 68.33L551.14 67.9L549.9 67.51L548.63 67.17L547.35 66.88L546.05 66.64L544.73 66.45L543.4 66.32L542.05 66.23L540.69 66.21L539.33 66.23L537.98 66.32Z" id="av8ZxJPey"></path><path d="M276.77 44.17L277.21 44.22L277.65 44.28L278.09 44.36L278.52 44.46L278.94 44.57L279.35 44.7L279.76 44.84L280.16 45L280.55 45.18L280.94 45.37L281.31 45.57L281.68 45.79L282.04 46.02L282.38 46.26L282.72 46.52L283.05 46.79L283.36 47.07L283.67 47.37L283.96 47.67L284.24 47.99L284.51 48.31L284.77 48.65L285.01 49L285.25 49.36L285.46 49.72L285.67 50.1L285.86 50.48L286.03 50.87L286.19 51.27L286.33 51.68L286.46 52.1L286.58 52.52L286.67 52.95L286.75 53.38L286.81 53.82L286.86 54.27L286.89 54.72L286.9 55.17L286.89 55.63L286.86 56.08L286.82 56.52L286.75 56.96L286.67 57.39L286.58 57.82L286.46 58.24L286.34 58.66L286.19 59.06L286.03 59.46L285.86 59.85L285.67 60.24L285.47 60.61L285.25 60.98L285.02 61.33L284.78 61.68L284.52 62.02L284.25 62.34L283.97 62.66L283.68 62.97L283.37 63.26L283.06 63.54L282.73 63.81L282.39 64.07L282.05 64.31L281.69 64.54L281.33 64.76L280.95 64.96L280.57 65.15L280.18 65.33L279.78 65.49L279.37 65.64L278.96 65.77L278.54 65.88L278.11 65.98L277.68 66.06L277.24 66.12L276.8 66.17L276.35 66.2L275.9 66.21L275.58 66.21L275.06 66.23L274.35 66.25L273.45 66.3L272.38 66.37L271.15 66.47L269.76 66.61L268.23 66.78L266.56 67L264.77 67.26L262.86 67.58L260.85 67.95L258.74 68.39L256.54 68.9L254.27 69.48L251.93 70.14L249.54 70.88L247.09 71.71L244.61 72.63L242.11 73.65L239.58 74.78L237.04 76L234.51 77.35L231.99 78.81L229.49 80.39L227.02 82.09L224.58 83.93L222.2 85.91L219.88 88.03L217.63 90.29L215.46 92.71L213.37 95.28L211.39 98.01L209.51 100.91L207.75 103.98L206.12 107.23L204.62 110.66L203.27 114.27L202.08 118.07L201.06 122.07L203.5 120.88L206 119.71L208.57 118.57L211.2 117.47L213.89 116.42L216.63 115.4L219.43 114.44L222.28 113.52L225.18 112.66L228.13 111.87L231.13 111.13L234.17 110.46L237.24 109.87L240.36 109.35L243.51 108.91L246.7 108.55L249.92 108.29L253.16 108.11L256.44 108.03L259.74 108.04L263.06 108.16L266.4 108.39L269.76 108.72L273.13 109.17L276.51 109.74L279.91 110.44L283.32 111.26L286.73 112.2L290.14 113.29L293.56 114.51L296.97 115.87L300.39 117.38L303.79 119.04L307.19 120.85L310.58 122.82L313.96 124.95L317.32 127.25L320.66 129.72L323.99 132.36L327.29 135.17L327.63 135.48L327.95 135.8L328.25 136.13L328.54 136.46L328.82 136.81L329.07 137.17L329.32 137.53L329.54 137.9L329.75 138.28L329.95 138.66L330.12 139.05L330.29 139.45L330.43 139.85L330.56 140.25L330.68 140.66L330.78 141.08L330.86 141.49L330.93 141.91L330.98 142.33L331.01 142.75L331.03 143.18L331.03 143.6L331.02 144.02L330.99 144.45L330.94 144.87L330.88 145.29L330.8 145.71L330.71 146.13L330.59 146.54L330.47 146.95L330.32 147.35L330.16 147.76L329.98 148.15L329.79 148.54L329.58 148.93L329.35 149.3L329.11 149.68L328.85 150.04L328.57 150.4L328.28 150.74L328.11 150.93L327.94 151.11L327.77 151.28L327.6 151.45L327.42 151.62L327.24 151.78L327.05 151.93L326.87 152.08L326.68 152.23L326.49 152.37L326.3 152.51L326.1 152.64L325.9 152.77L325.7 152.9L325.5 153.02L325.3 153.13L325.09 153.24L324.88 153.35L324.67 153.45L324.46 153.54L324.25 153.63L324.03 153.72L323.82 153.8L323.6 153.88L323.38 153.95L323.16 154.02L322.94 154.09L322.72 154.14L322.49 154.2L322.27 154.25L322.05 154.29L321.82 154.33L321.59 154.37L321.37 154.4L321.14 154.42L320.91 154.45L320.68 154.46L320.46 154.47L320.23 154.48L320 154.48L319.81 154.48L319.61 154.48L319.42 154.47L319.22 154.46L319.03 154.44L318.83 154.42L318.64 154.4L318.45 154.37L318.25 154.34L318.06 154.31L317.87 154.28L317.68 154.24L317.48 154.19L317.29 154.15L317.1 154.1L316.91 154.05L316.72 153.99L316.54 153.93L316.35 153.87L316.16 153.8L315.98 153.73L315.79 153.65L315.61 153.58L315.43 153.5L315.25 153.41L315.07 153.32L314.89 153.23L314.71 153.14L314.54 153.04L314.36 152.94L314.19 152.83L314.02 152.72L313.85 152.61L313.68 152.49L313.51 152.37L313.35 152.25L313.18 152.13L313.02 152L312.86 151.86L312.71 151.72L310.3 149.67L307.89 147.73L305.48 145.91L303.06 144.2L300.64 142.6L298.22 141.11L295.8 139.73L293.38 138.45L290.96 137.27L288.55 136.19L286.14 135.2L283.74 134.3L281.34 133.5L278.95 132.78L276.57 132.15L274.21 131.6L271.85 131.13L269.51 130.73L267.18 130.42L264.86 130.17L262.57 129.99L260.29 129.88L258.03 129.83L255.78 129.85L253.56 129.92L251.37 130.05L249.19 130.23L247.04 130.47L244.92 130.75L242.82 131.08L240.75 131.45L238.71 131.86L236.7 132.31L234.72 132.8L232.77 133.32L230.86 133.87L228.98 134.45L227.14 135.05L225.34 135.67L223.57 136.32L226.8 136.92L230.1 137.57L233.47 138.29L236.9 139.07L240.38 139.91L243.91 140.83L247.47 141.81L251.06 142.87L254.67 144L258.28 145.22L261.9 146.51L265.52 147.9L269.12 149.36L272.69 150.92L276.24 152.57L279.75 154.32L283.21 156.16L286.62 158.11L289.96 160.15L293.23 162.31L296.43 164.57L299.53 166.94L302.54 169.43L305.44 172.03L308.23 174.75L310.9 177.6L313.45 180.57L315.85 183.67L318.11 186.89L320.22 190.25L322.16 193.75L323.94 197.38L325.53 201.15L326.94 205.07L328.16 209.13L329.17 213.34L329.97 217.7L330.56 222.22L330.91 226.89L331.03 231.72L331.03 232.18L331 232.63L330.95 233.08L330.89 233.52L330.81 233.95L330.71 234.38L330.6 234.8L330.47 235.21L330.33 235.62L330.17 236.02L329.99 236.41L329.8 236.8L329.6 237.17L329.38 237.54L329.15 237.9L328.91 238.24L328.65 238.58L328.38 238.91L328.1 239.22L327.81 239.53L327.5 239.82L327.18 240.11L326.86 240.37L326.52 240.63L326.17 240.88L325.82 241.11L325.45 241.32L325.07 241.53L324.69 241.72L324.3 241.89L323.9 242.05L323.49 242.2L323.08 242.33L322.65 242.44L322.23 242.53L321.79 242.61L321.35 242.68L320.91 242.72L320.46 242.75L320 242.76L319.54 242.75L319.09 242.72L318.65 242.68L318.21 242.61L317.77 242.53L317.35 242.44L316.92 242.33L316.51 242.2L316.1 242.05L315.7 241.89L315.31 241.72L314.93 241.53L314.55 241.32L314.18 241.11L313.83 240.88L313.48 240.63L313.14 240.37L312.82 240.11L312.5 239.82L312.19 239.53L311.9 239.22L311.62 238.91L311.35 238.58L311.09 238.24L310.85 237.9L310.62 237.54L310.4 237.17L310.2 236.8L310.01 236.41L309.83 236.02L309.67 235.62L309.53 235.21L309.4 234.8L309.29 234.38L309.19 233.95L309.11 233.52L309.05 233.08L309 232.63L308.97 232.18L308.97 231.72L308.92 229.19L308.77 226.7L308.54 224.28L308.21 221.91L307.79 219.59L307.29 217.33L306.71 215.11L306.04 212.96L305.29 210.85L304.47 208.79L303.57 206.79L302.6 204.84L301.56 202.93L300.45 201.07L299.27 199.26L298.03 197.5L296.73 195.79L295.37 194.12L293.96 192.49L292.49 190.92L290.96 189.38L289.39 187.89L287.77 186.44L286.1 185.04L284.39 183.67L282.64 182.35L280.85 181.07L279.02 179.83L277.16 178.62L275.27 177.46L273.34 176.33L271.39 175.24L269.42 174.19L267.42 173.18L265.4 172.2L263.36 171.25L261.3 170.34L259.23 169.46L257.15 168.61L255.06 167.8L256.38 169.4L257.68 171.05L258.97 172.75L260.24 174.49L261.5 176.29L262.73 178.13L263.95 180.03L265.15 181.98L266.33 183.98L267.48 186.03L268.61 188.14L269.72 190.3L270.8 192.52L271.86 194.8L272.89 197.13L273.89 199.51L274.86 201.96L275.81 204.47L276.72 207.03L277.6 209.65L278.44 212.34L279.25 215.09L280.03 217.9L280.77 220.77L281.48 223.7L282.14 226.7L282.77 229.77L283.36 232.9L283.9 236.1L284.4 239.36L284.86 242.7L285.28 246.1L285.65 249.57L285.97 253.11L286.25 256.72L286.48 260.4L286.66 264.16L286.79 267.99L286.87 271.89L286.9 275.86L286.89 276.32L286.86 276.77L286.81 277.21L286.75 277.65L286.67 278.09L286.58 278.52L286.46 278.94L286.33 279.35L286.19 279.76L286.03 280.16L285.86 280.55L285.67 280.94L285.46 281.31L285.25 281.68L285.01 282.04L284.77 282.38L284.51 282.72L284.24 283.05L283.96 283.36L283.67 283.67L283.36 283.96L283.05 284.24L282.72 284.51L282.38 284.77L282.04 285.01L281.68 285.25L281.31 285.46L280.94 285.67L280.55 285.86L280.16 286.03L279.76 286.19L279.35 286.33L278.94 286.46L278.52 286.58L278.09 286.67L277.65 286.75L277.21 286.81L276.77 286.86L276.32 286.89L275.86 286.9L275.41 286.89L274.96 286.86L274.51 286.81L274.07 286.75L273.64 286.67L273.21 286.58L272.79 286.46L272.37 286.33L271.96 286.19L271.56 286.03L271.17 285.86L270.79 285.67L270.41 285.46L270.05 285.25L269.69 285.01L269.34 284.77L269 284.51L268.68 284.24L268.36 283.96L268.06 283.67L267.76 283.36L267.48 283.05L267.21 282.72L266.95 282.38L266.71 282.04L266.48 281.68L266.26 281.31L266.06 280.94L265.87 280.55L265.69 280.16L265.53 279.76L265.39 279.35L265.26 278.94L265.15 278.52L265.05 278.09L264.97 277.65L264.91 277.21L264.86 276.77L264.84 276.32L264.83 275.86L264.75 269.06L264.5 262.53L264.1 256.24L263.56 250.2L262.87 244.41L262.05 238.86L261.1 233.54L260.02 228.44L258.83 223.58L257.53 218.93L256.12 214.49L254.62 210.26L253.03 206.24L251.35 202.41L249.59 198.78L247.77 195.33L245.87 192.07L243.92 188.99L241.91 186.08L239.86 183.34L237.76 180.76L235.64 178.34L233.48 176.08L231.3 173.96L229.11 171.99L226.91 170.15L224.71 168.45L222.51 166.87L220.32 165.42L218.15 164.09L216 162.87L213.88 161.76L211.8 160.75L209.76 159.84L207.76 159.02L205.82 158.29L203.95 157.64L202.14 157.07L200.4 156.58L198.74 156.15L199.05 173.05L199.58 189.56L200.34 205.67L201.31 221.4L202.48 236.74L203.84 251.69L205.38 266.25L207.08 280.42L208.93 294.2L210.93 307.59L213.06 320.6L215.32 333.22L217.68 345.45L220.15 357.3L222.7 368.75L225.32 379.83L228.02 390.51L230.77 400.81L233.56 410.73L236.38 420.26L239.23 429.41L242.09 438.17L244.94 446.55L247.78 454.54L250.6 462.15L253.39 469.38L256.13 476.23L258.81 482.69L261.43 488.77L263.96 494.47L266.41 499.79L268.75 504.73L270.99 509.29L273.09 513.47L275.07 517.27L276.9 520.69L278.57 523.72L280.07 526.39L281.39 528.67L282.53 530.57L283.42 530.53L284.32 530.49L285.22 530.44L286.12 530.4L287.02 530.36L287.93 530.33L288.84 530.29L289.75 530.25L290.66 530.22L291.57 530.18L292.49 530.15L293.41 530.12L294.33 530.08L295.25 530.05L296.17 530.02L297.1 530L298.03 529.97L298.96 529.94L299.89 529.92L300.82 529.89L301.76 529.87L302.7 529.85L303.64 529.83L304.59 529.81L305.53 529.79L306.48 529.77L307.43 529.76L308.38 529.74L309.34 529.73L310.3 529.72L311.26 529.7L312.22 529.69L313.18 529.69L314.15 529.68L315.12 529.67L316.09 529.67L317.06 529.66L318.04 529.66L319.02 529.66L320 529.66L334.26 529.78L348.04 530.15L361.34 530.74L374.17 531.56L386.55 532.59L398.47 533.82L409.96 535.24L421 536.83L431.62 538.59L441.82 540.51L451.6 542.58L460.99 544.77L469.97 547.1L478.56 549.54L486.78 552.08L494.62 554.71L502.09 557.43L509.21 560.22L515.97 563.06L522.4 565.96L528.48 568.9L534.25 571.86L539.69 574.84L544.82 577.83L549.64 580.82L554.17 583.79L558.42 586.74L562.38 589.65L566.07 592.52L569.49 595.33L572.66 598.07L575.57 600.73L578.25 603.3L580.69 605.78L582.91 608.14L584.9 610.38L586.69 612.49L588.27 614.46L589.66 616.28L590.86 617.93L628.97 617.93L629.42 617.94L629.87 617.97L630.32 618.01L630.76 618.08L631.19 618.15L631.62 618.25L632.04 618.36L632.46 618.49L632.86 618.64L633.26 618.8L633.66 618.97L634.04 619.16L634.42 619.36L634.78 619.58L635.14 619.81L635.49 620.06L635.82 620.31L636.15 620.58L636.47 620.87L636.77 621.16L637.06 621.47L637.35 621.78L637.62 622.11L637.87 622.45L638.12 622.79L638.35 623.15L638.57 623.52L638.77 623.89L638.96 624.27L639.13 624.67L639.29 625.07L639.44 625.47L639.57 625.89L639.68 626.31L639.78 626.74L639.86 627.17L639.92 627.61L639.96 628.06L639.99 628.51L640 628.97L639.99 629.42L639.96 629.87L639.92 630.32L639.86 630.76L639.78 631.19L639.68 631.62L639.57 632.04L639.44 632.46L639.29 632.86L639.13 633.26L638.96 633.66L638.77 634.04L638.57 634.42L638.35 634.78L638.12 635.14L637.87 635.49L637.62 635.82L637.35 636.15L637.06 636.47L636.77 636.77L636.47 637.06L636.15 637.35L635.82 637.62L635.49 637.87L635.14 638.12L634.78 638.35L634.42 638.57L634.04 638.77L633.66 638.96L633.26 639.13L632.86 639.29L632.46 639.44L632.04 639.57L631.62 639.68L631.19 639.78L630.76 639.86L630.32 639.92L629.87 639.96L629.42 639.99L628.97 640L11.03 640L10.58 639.99L10.13 639.96L9.68 639.92L9.24 639.86L8.81 639.78L8.38 639.68L7.96 639.57L7.54 639.44L7.14 639.29L6.74 639.13L6.34 638.96L5.96 638.77L5.58 638.57L5.22 638.35L4.86 638.12L4.51 637.87L4.18 637.62L3.85 637.35L3.53 637.06L3.23 636.77L2.94 636.47L2.65 636.15L2.38 635.82L2.13 635.49L1.88 635.14L1.65 634.78L1.43 634.42L1.23 634.04L1.04 633.66L0.87 633.26L0.71 632.86L0.56 632.46L0.43 632.04L0.32 631.62L0.22 631.19L0.14 630.76L0.08 630.32L0.04 629.87L0.01 629.42L0 628.97L0.01 628.51L0.04 628.06L0.08 627.61L0.14 627.17L0.22 626.74L0.32 626.31L0.43 625.89L0.56 625.47L0.71 625.07L0.87 624.67L1.04 624.27L1.23 623.89L1.43 623.52L1.65 623.15L1.88 622.79L2.13 622.45L2.38 622.11L2.65 621.78L2.94 621.47L3.23 621.16L3.53 620.87L3.85 620.58L4.18 620.31L4.51 620.06L4.86 619.81L5.22 619.58L5.58 619.36L5.96 619.16L6.34 618.97L6.74 618.8L7.14 618.64L7.54 618.49L7.96 618.36L8.38 618.25L8.81 618.15L9.24 618.08L9.68 618.01L10.13 617.97L10.58 617.94L11.03 617.93L49.09 617.93L50.14 616.47L51.33 614.88L52.67 613.18L54.17 611.35L55.83 609.43L57.66 607.4L59.65 605.28L61.83 603.08L64.19 600.8L66.74 598.45L69.48 596.04L72.42 593.57L75.57 591.06L78.93 588.51L82.5 585.92L86.29 583.31L90.32 580.69L94.57 578.05L99.06 575.41L103.8 572.77L108.78 570.14L114.02 567.53L119.51 564.95L125.27 562.41L131.31 559.9L137.61 557.44L144.2 555.04L151.08 552.7L158.25 550.43L165.71 548.24L173.48 546.13L181.56 544.12L189.95 542.2L198.66 540.4L207.7 538.7L217.06 537.13L226.77 535.69L236.81 534.39L247.2 533.23L257.94 532.22L256.21 529.06L254.36 525.59L252.4 521.81L250.34 517.73L248.18 513.33L245.94 508.63L243.61 503.61L241.22 498.28L238.76 492.64L236.26 486.68L233.7 480.41L231.11 473.83L228.49 466.93L225.84 459.71L223.19 452.18L220.53 444.33L217.87 436.17L215.23 427.68L212.6 418.88L210.01 409.75L207.45 400.31L204.93 390.55L202.47 380.46L200.07 370.05L197.74 359.32L195.49 348.27L193.32 336.89L191.25 325.18L189.28 313.16L187.42 300.8L185.68 288.12L184.06 275.11L182.58 261.77L181.25 248.11L180.06 234.11L179.04 219.79L178.18 205.14L177.5 190.15L177.01 174.83L176.71 159.18L175.98 159.75L175.24 160.36L174.5 161.01L173.75 161.71L172.99 162.46L172.23 163.26L171.46 164.11L170.7 165.01L169.94 165.97L169.17 166.98L168.42 168.06L167.66 169.19L166.92 170.38L166.18 171.64L165.45 172.96L164.73 174.35L164.02 175.81L163.33 177.33L162.65 178.93L161.99 180.59L161.34 182.34L160.72 184.16L160.12 186.05L159.53 188.03L158.98 190.08L158.45 192.22L157.94 194.45L157.46 196.75L157.02 199.15L156.6 201.63L156.22 204.21L155.87 206.88L155.56 209.64L155.28 212.49L155.04 215.45L154.85 218.5L154.69 221.65L154.58 224.9L154.51 228.26L154.48 231.72L154.47 232.18L154.45 232.63L154.4 233.08L154.34 233.52L154.26 233.95L154.16 234.38L154.05 234.8L153.92 235.21L153.78 235.62L153.62 236.02L153.44 236.41L153.25 236.8L153.05 237.17L152.83 237.54L152.6 237.9L152.36 238.24L152.1 238.58L151.83 238.91L151.55 239.22L151.25 239.53L150.95 239.82L150.63 240.11L150.31 240.37L149.97 240.63L149.62 240.88L149.26 241.11L148.9 241.32L148.52 241.53L148.14 241.72L147.75 241.89L147.35 242.05L146.94 242.2L146.52 242.33L146.1 242.44L145.67 242.53L145.24 242.61L144.8 242.68L144.35 242.72L143.9 242.75L143.45 242.76L142.99 242.75L142.54 242.72L142.1 242.68L141.66 242.61L141.22 242.53L140.79 242.44L140.37 242.33L139.96 242.2L139.55 242.05L139.15 241.89L138.76 241.72L138.37 241.53L138 241.32L137.63 241.11L137.28 240.88L136.93 240.63L136.59 240.37L136.26 240.11L135.95 239.82L135.64 239.53L135.35 239.22L135.07 238.91L134.8 238.58L134.54 238.24L134.3 237.9L134.07 237.54L133.85 237.17L133.64 236.8L133.45 236.41L133.28 236.02L133.12 235.62L132.98 235.21L132.85 234.8L132.73 234.38L132.64 233.95L132.56 233.52L132.5 233.08L132.45 232.63L132.42 232.18L132.41 231.72L132.42 230.13L132.43 228.55L132.46 227L132.49 225.46L132.53 223.93L132.58 222.43L132.65 220.94L132.72 219.47L132.79 218.01L132.88 216.58L132.98 215.15L133.08 213.75L133.19 212.36L133.31 210.99L133.44 209.64L133.58 208.3L133.72 206.98L133.88 205.67L134.04 204.38L134.2 203.1L134.38 201.84L134.56 200.59L134.75 199.36L134.95 198.15L135.15 196.95L135.36 195.76L135.58 194.59L135.8 193.44L136.03 192.29L136.27 191.17L136.51 190.05L136.76 188.95L137.01 187.86L137.28 186.79L137.54 185.73L137.81 184.69L138.09 183.65L138.38 182.63L138.66 181.63L138.96 180.63L137.8 181.97L136.66 183.35L135.52 184.77L134.4 186.24L133.29 187.75L132.19 189.32L131.11 190.93L130.04 192.59L128.99 194.29L127.96 196.05L126.95 197.86L125.95 199.73L124.98 201.64L124.03 203.61L123.11 205.63L122.2 207.7L121.32 209.84L120.47 212.02L119.65 214.27L118.85 216.57L118.08 218.93L117.34 221.35L116.64 223.83L115.96 226.37L115.32 228.97L114.71 231.64L114.14 234.36L113.6 237.15L113.1 240.01L112.64 242.93L112.22 245.91L111.84 248.96L111.49 252.08L111.2 255.27L110.94 258.53L110.73 261.85L110.56 265.25L110.44 268.71L110.37 272.25L110.34 275.86L110.34 276.32L110.31 276.77L110.26 277.21L110.2 277.65L110.12 278.09L110.02 278.52L109.91 278.94L109.78 279.35L109.64 279.76L109.48 280.16L109.3 280.55L109.11 280.94L108.91 281.31L108.69 281.68L108.46 282.04L108.22 282.38L107.96 282.72L107.69 283.05L107.41 283.36L107.12 283.67L106.81 283.96L106.49 284.24L106.17 284.51L105.83 284.77L105.48 285.01L105.13 285.25L104.76 285.46L104.38 285.67L104 285.86L103.61 286.03L103.21 286.19L102.8 286.33L102.39 286.46L101.96 286.58L101.54 286.67L101.1 286.75L100.66 286.81L100.22 286.86L99.77 286.89L99.31 286.9L98.85 286.89L98.4 286.86L97.96 286.81L97.52 286.75L97.08 286.67L96.66 286.58L96.23 286.46L95.82 286.33L95.41 286.19L95.01 286.03L94.62 285.86L94.24 285.67L93.86 285.46L93.49 285.25L93.14 285.01L92.79 284.77L92.45 284.51L92.13 284.24L91.81 283.96L91.5 283.67L91.21 283.36L90.93 283.05L90.66 282.72L90.4 282.38L90.16 282.04L89.93 281.68L89.71 281.31L89.51 280.94L89.32 280.55L89.14 280.16L88.98 279.76L88.84 279.35L88.71 278.94L88.6 278.52L88.5 278.09L88.42 277.65L88.36 277.21L88.31 276.77L88.29 276.32L88.28 275.86L88.31 271.71L88.39 267.65L88.54 263.66L88.75 259.75L89 255.92L89.32 252.17L89.68 248.49L90.1 244.89L90.57 241.37L91.09 237.92L91.66 234.54L92.27 231.24L92.93 228L93.63 224.84L94.38 221.75L95.17 218.73L96 215.78L96.87 212.89L97.78 210.08L98.72 207.33L99.7 204.64L100.72 202.02L101.77 199.46L102.85 196.97L103.96 194.54L105.11 192.17L106.28 189.86L107.48 187.61L108.7 185.42L109.96 183.29L111.23 181.22L112.53 179.21L113.85 177.25L115.18 175.34L116.54 173.49L117.92 171.69L119.31 169.95L120.72 168.26L122.14 166.62L123.58 165.03L122.48 165.41L121.38 165.79L120.29 166.18L119.2 166.59L118.11 167L117.03 167.42L115.94 167.84L114.86 168.28L113.79 168.73L112.71 169.19L111.65 169.66L110.58 170.13L109.52 170.62L108.47 171.12L107.42 171.62L106.38 172.14L105.34 172.67L104.31 173.21L103.29 173.75L102.27 174.31L101.26 174.88L100.26 175.46L99.27 176.05L98.28 176.66L97.3 177.27L96.34 177.89L95.38 178.53L94.43 179.18L93.49 179.84L92.56 180.51L91.64 181.19L90.73 181.88L89.84 182.59L88.95 183.31L88.08 184.04L87.22 184.78L86.37 185.53L85.53 186.3L84.71 187.08L83.9 187.87L83.01 188.77L82.16 189.67L81.32 190.58L80.51 191.5L79.72 192.44L78.95 193.38L78.21 194.33L77.48 195.29L76.78 196.26L76.11 197.24L75.45 198.23L74.82 199.23L74.22 200.24L73.63 201.27L73.07 202.3L72.53 203.34L72.01 204.39L71.51 205.46L71.04 206.53L70.59 207.62L70.16 208.71L69.75 209.82L69.37 210.94L69 212.07L68.66 213.21L68.35 214.36L68.05 215.53L67.78 216.7L67.53 217.89L67.3 219.09L67.09 220.3L66.9 221.52L66.74 222.75L66.6 224L66.48 225.25L66.38 226.52L66.3 227.81L66.25 229.1L66.22 230.41L66.21 231.72L66.2 232.18L66.17 232.63L66.13 233.08L66.06 233.52L65.98 233.95L65.89 234.38L65.77 234.8L65.65 235.21L65.5 235.62L65.34 236.02L65.17 236.41L64.98 236.8L64.77 237.17L64.56 237.54L64.32 237.9L64.08 238.24L63.82 238.58L63.55 238.91L63.27 239.22L62.98 239.53L62.67 239.82L62.36 240.11L62.03 240.37L61.69 240.63L61.35 240.88L60.99 241.11L60.62 241.32L60.25 241.53L59.86 241.72L59.47 241.89L59.07 242.05L58.66 242.2L58.25 242.33L57.83 242.44L57.4 242.53L56.96 242.61L56.52 242.68L56.08 242.72L55.63 242.75L55.17 242.76L54.72 242.75L54.27 242.72L53.82 242.68L53.38 242.61L52.95 242.53L52.52 242.44L52.1 242.33L51.68 242.2L51.27 242.05L50.87 241.89L50.48 241.72L50.1 241.53L49.72 241.32L49.36 241.11L49 240.88L48.65 240.63L48.31 240.37L47.99 240.11L47.67 239.82L47.37 239.53L47.07 239.22L46.79 238.91L46.52 238.58L46.26 238.24L46.02 237.9L45.79 237.54L45.57 237.17L45.37 236.8L45.18 236.41L45 236.02L44.84 235.62L44.7 235.21L44.57 234.8L44.46 234.38L44.36 233.95L44.28 233.52L44.22 233.08L44.17 232.63L44.15 232.18L44.14 231.72L44.15 229.97L44.2 228.22L44.28 226.49L44.38 224.77L44.52 223.06L44.69 221.37L44.89 219.69L45.11 218.03L45.37 216.38L45.66 214.74L45.98 213.11L46.33 211.5L46.71 209.91L47.12 208.32L47.57 206.75L48.04 205.2L48.54 203.66L49.07 202.13L49.63 200.62L50.22 199.12L50.85 197.63L51.5 196.16L52.18 194.71L52.89 193.26L53.64 191.84L54.41 190.42L55.21 189.03L56.05 187.64L56.91 186.27L57.8 184.92L58.72 183.58L59.68 182.25L60.66 180.94L61.67 179.64L62.71 178.36L63.78 177.1L64.89 175.85L66.02 174.61L67.18 173.39L68.37 172.18L70.2 170.41L72.08 168.7L74 167.03L75.97 165.42L77.97 163.86L80.01 162.35L82.09 160.89L84.2 159.47L86.34 158.11L88.51 156.79L90.7 155.51L92.92 154.29L95.16 153.1L97.42 151.96L99.7 150.86L102 149.81L104.3 148.79L106.62 147.82L108.95 146.88L111.28 145.98L113.62 145.12L115.96 144.3L118.3 143.51L120.64 142.76L122.97 142.05L125.3 141.36L127.61 140.71L129.92 140.09L132.22 139.51L134.49 138.95L136.75 138.43L138.99 137.93L141.21 137.46L143.41 137.02L145.57 136.6L147.71 136.21L149.82 135.84L151.9 135.5L153.94 135.18L155.94 134.89L154.39 134.22L152.8 133.58L151.17 132.97L149.48 132.38L147.76 131.82L145.99 131.29L144.17 130.8L142.31 130.34L140.41 129.93L138.47 129.56L136.48 129.23L134.45 128.96L132.38 128.73L130.27 128.56L128.11 128.45L125.92 128.4L123.68 128.41L121.4 128.48L119.08 128.63L116.73 128.84L114.33 129.13L111.89 129.49L109.42 129.94L106.91 130.47L104.35 131.08L101.77 131.78L99.14 132.57L96.47 133.45L93.77 134.43L91.04 135.51L88.26 136.69L85.45 137.97L82.61 139.36L79.72 140.86L76.81 142.48L73.86 144.21L70.87 146.05L67.85 148.02L64.8 150.11L61.72 152.33L61.34 152.59L60.96 152.84L60.58 153.06L60.18 153.27L59.78 153.47L59.38 153.64L58.97 153.8L58.56 153.94L58.15 154.07L57.73 154.17L57.31 154.26L56.89 154.34L56.47 154.4L56.04 154.44L55.62 154.46L55.19 154.47L54.77 154.46L54.35 154.44L53.93 154.4L53.51 154.34L53.09 154.27L52.68 154.18L52.26 154.08L51.86 153.96L51.46 153.82L51.06 153.67L50.67 153.51L50.28 153.33L49.9 153.13L49.53 152.92L49.16 152.69L48.81 152.45L48.46 152.19L48.12 151.92L47.79 151.63L47.47 151.33L47.15 151.02L46.85 150.69L46.57 150.34L46.29 149.98L46.03 149.61L45.78 149.23L45.56 148.84L45.35 148.45L45.15 148.06L44.98 147.65L44.82 147.25L44.68 146.84L44.55 146.42L44.45 146.01L44.35 145.59L44.28 145.17L44.22 144.74L44.18 144.32L44.16 143.89L44.15 143.47L44.15 143.04L44.18 142.62L44.22 142.2L44.27 141.78L44.35 141.36L44.43 140.95L44.54 140.54L44.66 140.13L44.79 139.73L44.94 139.33L45.11 138.94L45.29 138.55L45.49 138.17L45.7 137.8L45.93 137.43L46.17 137.07L46.43 136.72L46.7 136.38L46.98 136.05L47.29 135.73L47.6 135.42L47.93 135.12L48.28 134.83L48.64 134.55L52.67 131.66L56.67 128.96L60.62 126.42L64.53 124.07L68.4 121.88L72.22 119.86L76 117.99L79.73 116.29L83.42 114.73L87.06 113.33L90.66 112.06L94.21 110.94L97.71 109.95L101.15 109.09L104.55 108.35L107.9 107.74L111.2 107.25L114.45 106.86L117.64 106.59L120.78 106.42L123.87 106.35L126.9 106.37L129.88 106.49L132.8 106.69L135.66 106.98L138.47 107.34L141.21 107.78L143.9 108.28L146.53 108.86L149.1 109.49L151.61 110.18L154.06 110.92L156.45 111.7L158.77 112.54L161.03 113.41L163.23 114.31L165.36 115.25L167.42 116.21L169.42 117.19L171.35 118.19L169.5 114.45L167.4 110.89L165.07 107.51L162.52 104.3L159.78 101.27L156.85 98.4L153.76 95.69L150.51 93.14L147.13 90.74L143.61 88.48L139.99 86.37L136.28 84.4L132.49 82.56L128.63 80.85L124.73 79.26L120.79 77.79L116.84 76.43L112.87 75.19L108.93 74.05L105 73.01L101.12 72.07L97.3 71.22L93.54 70.45L89.87 69.77L86.31 69.16L82.86 68.63L79.54 68.17L76.37 67.76L73.35 67.42L70.52 67.13L67.87 66.9L65.44 66.7L63.22 66.55L61.24 66.43L59.51 66.34L58.05 66.28L56.87 66.24L55.98 66.22L55.41 66.21L55.16 66.21L54.71 66.2L54.26 66.17L53.81 66.12L53.37 66.06L52.94 65.98L52.51 65.88L52.09 65.77L51.68 65.64L51.27 65.49L50.87 65.33L50.48 65.16L50.09 64.97L49.72 64.76L49.35 64.54L49 64.31L48.65 64.07L48.31 63.81L47.99 63.54L47.67 63.26L47.37 62.96L47.07 62.66L46.79 62.34L46.52 62.02L46.26 61.68L46.02 61.33L45.79 60.97L45.57 60.61L45.37 60.23L45.18 59.85L45 59.46L44.84 59.06L44.7 58.65L44.57 58.23L44.46 57.81L44.36 57.38L44.28 56.95L44.22 56.51L44.17 56.07L44.15 55.62L44.14 55.16L44.15 54.71L44.18 54.26L44.22 53.81L44.29 53.37L44.37 52.94L44.46 52.51L44.58 52.09L44.71 51.68L44.85 51.27L45.01 50.87L45.19 50.48L45.38 50.09L45.58 49.72L45.8 49.35L46.03 49L46.27 48.65L46.53 48.31L46.8 47.99L47.08 47.67L47.38 47.37L47.68 47.07L48 46.79L48.32 46.52L48.66 46.26L49.01 46.02L49.36 45.79L49.73 45.57L50.1 45.37L50.49 45.18L50.88 45L51.28 44.84L51.69 44.7L52.1 44.57L52.52 44.46L52.95 44.36L53.38 44.28L53.82 44.22L54.27 44.17L54.72 44.15L55.17 44.14L58.1 44.16L61.11 44.23L64.22 44.36L67.4 44.53L70.66 44.76L73.99 45.04L77.38 45.38L80.83 45.78L84.33 46.23L87.88 46.75L91.46 47.33L95.07 47.98L98.72 48.69L102.38 49.46L106.06 50.31L109.75 51.23L113.44 52.22L117.13 53.28L120.81 54.42L124.48 55.64L128.13 56.94L131.75 58.31L135.33 59.77L138.88 61.31L142.39 62.94L145.84 64.65L149.24 66.45L152.58 68.34L155.84 70.32L159.04 72.39L162.15 74.56L165.18 76.83L168.11 79.19L170.95 81.65L173.69 84.21L176.31 86.88L178.82 89.65L181.2 92.52L183.46 95.5L185.59 98.59L187.06 95.5L188.63 92.52L190.28 89.65L192.01 86.88L193.83 84.22L195.72 81.66L197.69 79.19L199.72 76.83L201.82 74.57L203.97 72.4L206.18 70.33L208.44 68.34L210.75 66.45L213.1 64.65L215.49 62.94L217.92 61.32L220.38 59.77L222.86 58.32L225.36 56.94L227.89 55.65L230.42 54.43L232.97 53.29L235.53 52.22L238.08 51.23L240.63 50.31L243.18 49.47L245.72 48.69L248.24 47.98L250.74 47.33L253.22 46.75L255.68 46.23L258.1 45.78L260.48 45.38L262.83 45.04L265.14 44.76L267.39 44.53L269.6 44.36L271.75 44.23L273.84 44.16L275.86 44.14L276.32 44.15L276.77 44.17ZM305.06 551.89L297.71 552.1L290.43 552.39L283.22 552.76L276.1 553.21L269.04 553.75L262.06 554.37L255.16 555.08L248.33 555.86L241.58 556.73L234.9 557.68L228.3 558.72L221.77 559.83L215.32 561.03L208.94 562.32L202.64 563.68L196.41 565.13L190.26 566.66L184.18 568.28L178.18 569.97L172.26 571.75L166.4 573.61L160.63 575.56L154.93 577.59L149.3 579.7L143.75 581.89L138.28 584.17L132.88 586.52L127.56 588.97L122.31 591.49L117.14 594.1L112.04 596.79L107.01 599.56L102.07 602.41L97.19 605.35L92.4 608.37L87.67 611.48L83.03 614.66L78.46 617.93L561.38 617.93L559.41 616.1L557.28 614.21L554.99 612.26L552.54 610.26L549.92 608.21L547.12 606.12L544.15 604L541 601.85L537.66 599.68L534.13 597.48L530.41 595.28L526.49 593.07L522.38 590.86L518.05 588.65L513.52 586.46L508.77 584.28L503.8 582.13L498.61 580L493.2 577.9L487.55 575.85L481.67 573.84L475.55 571.88L469.19 569.97L462.59 568.13L455.73 566.36L448.62 564.66L441.25 563.04L433.61 561.5L425.71 560.05L417.54 558.7L409.09 557.45L400.36 556.31L391.35 555.28L382.06 554.37L372.47 553.59L362.58 552.93L352.4 552.41L341.91 552.03L331.11 551.8L320 551.72L312.49 551.77L305.06 551.89Z" id="atRNY8aZC"></path></defs><g><g><g><use xlink:href="#av8ZxJPey" opacity="1" fill="#f5f5db" fill-opacity="1"></use><g><use xlink:href="#av8ZxJPey" opacity="1" fill-opacity="0" stroke="#000000" stroke-width="1" stroke-opacity="0"></use></g></g><g><use xlink:href="#atRNY8aZC" opacity="1" fill="#ffffff" fill-opacity="1"></use><g><use xlink:href="#atRNY8aZC" opacity="1" fill-opacity="0" stroke="#000000" stroke-width="1" stroke-opacity="0"></use></g></g></g></g></svg>