<?xml version="1.0" encoding="UTF-8" standalone="no"?>
<!DOCTYPE svg PUBLIC "-//W3C//DTD SVG 1.1//EN" "http://www.w3.org/Graphics/SVG/1.1/DTD/svg11.dtd">
<svg version="1.1" xmlns="http://www.w3.org/2000/svg" xmlns:xlink="http://www.w3.org/1999/xlink" preserveAspectRatio="xMidYMid meet" viewBox="0 0 640 640" width="640" height="640"><defs><path d="M352.41 198.64L353.23 198.67L354.04 198.72L354.86 198.77L355.67 198.84L356.48 198.91L357.28 199L358.09 199.1L358.89 199.22L359.69 199.34L360.49 199.48L361.29 199.62L362.08 199.78L362.87 199.95L363.66 200.14L364.44 200.33L365.22 200.53L366 200.75L366.77 200.98L367.54 201.22L368.31 201.47L369.07 201.73L369.83 202.01L370.59 202.29L371.34 202.59L372.09 202.89L372.83 203.21L373.57 203.54L374.3 203.88L375.03 204.23L375.76 204.6L376.48 204.97L377.2 205.35L377.91 205.75L378.61 206.16L379.31 206.57L380.01 207L380.7 207.44L381.38 207.89L501.45 287.94L632.45 331.61L632.79 331.73L633.12 331.85L633.44 331.99L633.76 332.14L634.07 332.29L634.38 332.46L634.68 332.63L634.97 332.82L635.26 333.01L635.54 333.21L635.81 333.41L636.07 333.63L636.33 333.85L636.58 334.09L636.82 334.32L637.06 334.57L637.29 334.82L637.51 335.08L637.72 335.35L637.92 335.62L638.11 335.9L638.3 336.18L638.48 336.47L638.64 336.76L638.8 337.06L638.95 337.37L639.09 337.68L639.22 338L639.34 338.32L639.46 338.64L639.56 338.97L639.65 339.3L639.73 339.63L639.8 339.97L639.86 340.32L639.91 340.66L639.95 341.01L639.98 341.36L639.99 341.71L640 342.07L640 386.21L639.99 386.66L639.96 387.11L639.92 387.56L639.86 388L639.78 388.43L639.68 388.86L639.57 389.28L639.44 389.7L639.29 390.11L639.13 390.51L638.96 390.9L638.77 391.28L638.57 391.66L638.35 392.02L638.12 392.38L637.87 392.73L637.62 393.06L637.35 393.39L637.06 393.71L636.77 394.01L636.47 394.31L636.15 394.59L635.82 394.86L635.49 395.11L635.14 395.36L634.78 395.59L634.42 395.81L634.04 396.01L633.66 396.2L633.26 396.38L632.86 396.54L632.46 396.68L632.04 396.81L631.62 396.92L631.19 397.02L630.76 397.1L630.32 397.16L629.87 397.2L629.42 397.23L628.97 397.24L550.61 397.24L550.19 399.12L549.71 400.97L549.17 402.79L548.57 404.59L547.91 406.36L547.19 408.1L546.41 409.81L545.58 411.49L544.69 413.13L543.75 414.75L542.75 416.32L541.71 417.87L540.61 419.37L539.47 420.83L538.28 422.26L537.04 423.64L535.76 424.98L534.43 426.28L533.06 427.53L531.65 428.74L530.2 429.9L528.71 431.01L527.18 432.07L525.61 433.09L524.01 434.04L522.38 434.95L520.71 435.8L519.01 436.6L517.28 437.34L515.52 438.02L513.73 438.64L511.91 439.2L510.07 439.7L508.21 440.14L506.32 440.51L504.4 440.82L502.47 441.06L500.51 441.24L498.54 441.34L496.55 441.38L494.56 441.34L492.59 441.24L490.63 441.06L488.7 440.82L486.79 440.51L484.9 440.14L483.03 439.7L481.19 439.2L479.37 438.64L477.58 438.02L475.82 437.34L474.09 436.6L472.39 435.8L470.72 434.95L469.09 434.04L467.49 433.09L465.92 432.07L464.4 431.01L462.91 429.9L461.45 428.74L460.04 427.53L458.67 426.28L457.35 424.98L456.06 423.64L454.83 422.26L453.64 420.83L452.49 419.37L451.4 417.87L450.35 416.32L449.36 414.75L448.42 413.13L447.53 411.49L446.69 409.81L445.92 408.1L445.2 406.36L444.53 404.59L443.93 402.79L443.39 400.97L442.91 399.12L442.49 397.24L197.51 397.24L197.09 399.12L196.61 400.97L196.07 402.79L195.47 404.59L194.8 406.36L194.08 408.1L193.31 409.81L192.47 411.49L191.58 413.13L190.64 414.75L189.65 416.32L188.6 417.87L187.51 419.37L186.36 420.83L185.17 422.26L183.94 423.64L182.65 424.98L181.33 426.28L179.96 427.53L178.55 428.74L177.09 429.9L175.6 431.01L174.08 432.07L172.51 433.09L170.91 434.04L169.28 434.95L167.61 435.8L165.91 436.6L164.18 437.34L162.42 438.02L160.63 438.64L158.81 439.2L156.97 439.7L155.1 440.14L153.21 440.51L151.3 440.82L149.37 441.06L147.41 441.24L145.44 441.34L143.45 441.38L141.46 441.34L139.49 441.24L137.53 441.06L135.6 440.82L133.68 440.51L131.79 440.14L129.93 439.7L128.09 439.2L126.27 438.64L124.48 438.02L122.72 437.34L120.99 436.6L119.29 435.8L117.62 434.95L115.99 434.04L114.39 433.09L112.82 432.07L111.29 431.01L109.8 429.9L108.35 428.74L106.94 427.53L105.57 426.28L104.24 424.98L102.96 423.64L101.72 422.26L100.53 420.83L99.39 419.37L98.29 417.87L97.25 416.32L96.25 414.75L95.31 413.13L94.42 411.49L93.59 409.81L92.81 408.1L92.09 406.36L91.43 404.59L90.83 402.79L90.29 400.97L89.81 399.12L89.39 397.24L33.1 397.24L31.74 397.21L30.39 397.13L29.06 397L27.74 396.81L26.44 396.57L25.16 396.28L23.9 395.94L22.65 395.55L21.43 395.12L20.23 394.64L19.06 394.11L17.9 393.54L16.78 392.93L15.68 392.27L14.61 391.58L13.57 390.85L12.55 390.07L11.57 389.26L10.62 388.42L9.71 387.53L8.83 386.62L7.98 385.67L7.17 384.69L6.4 383.67L5.66 382.63L4.97 381.56L4.31 380.46L3.7 379.34L3.13 378.19L2.61 377.01L2.13 375.81L1.69 374.59L1.3 373.35L0.96 372.08L0.67 370.8L0.43 369.5L0.25 368.18L0.11 366.85L0.03 365.5L0 364.14L0 320L0.03 318.64L0.11 317.29L0.25 315.96L0.43 314.64L0.67 313.34L0.96 312.06L1.3 310.79L1.69 309.55L2.13 308.33L2.61 307.13L3.13 305.95L3.7 304.8L4.31 303.68L4.97 302.58L5.66 301.51L6.4 300.46L7.17 299.45L7.98 298.47L8.83 297.52L9.71 296.6L10.62 295.72L11.57 294.88L12.55 294.07L13.57 293.29L14.61 292.56L15.68 291.86L16.78 291.21L17.9 290.6L19.06 290.03L20.23 289.5L21.43 289.02L22.65 288.59L23.9 288.2L25.16 287.86L26.44 287.57L27.74 287.33L29.06 287.14L30.39 287.01L31.74 286.92L33.1 286.9L92.49 286.9L121.38 229.12L122.1 227.72L122.86 226.35L123.65 225.01L124.48 223.69L125.34 222.41L126.23 221.15L127.15 219.92L128.1 218.72L129.09 217.56L130.1 216.42L131.14 215.31L132.21 214.24L133.31 213.19L134.43 212.18L135.58 211.2L136.75 210.26L137.95 209.34L139.18 208.47L140.42 207.62L141.69 206.82L142.98 206.04L144.29 205.3L145.63 204.6L146.98 203.94L148.35 203.31L149.74 202.72L151.14 202.17L152.57 201.65L154.01 201.18L155.46 200.74L156.94 200.34L158.42 199.99L159.92 199.67L161.43 199.39L162.95 199.16L164.49 198.97L166.03 198.82L167.59 198.71L169.15 198.64L170.73 198.62L350.78 198.62L351.59 198.63L352.41 198.64ZM140.74 353.21L139.4 353.35L138.09 353.54L136.79 353.78L135.5 354.07L134.24 354.41L133 354.79L131.78 355.23L130.58 355.71L129.4 356.23L128.25 356.8L127.12 357.42L126.02 358.07L124.95 358.77L123.91 359.5L122.9 360.27L121.92 361.08L120.97 361.93L120.05 362.81L119.17 363.73L118.32 364.68L117.51 365.66L116.74 366.67L116.01 367.71L115.31 368.78L114.66 369.88L114.05 371.01L113.48 372.16L112.95 373.33L112.47 374.53L112.04 375.76L111.65 377L111.31 378.26L111.02 379.54L110.78 380.84L110.59 382.16L110.45 383.5L110.37 384.84L110.34 386.21L110.37 387.57L110.45 388.92L110.59 390.25L110.78 391.57L111.02 392.87L111.31 394.15L111.65 395.42L112.04 396.66L112.47 397.88L112.95 399.08L113.48 400.25L114.05 401.41L114.66 402.53L115.31 403.63L116.01 404.7L116.74 405.74L117.51 406.76L118.32 407.74L119.17 408.69L120.05 409.6L120.97 410.48L121.92 411.33L122.9 412.14L123.91 412.91L124.95 413.65L126.02 414.34L127.12 415L128.25 415.61L129.4 416.18L130.58 416.7L131.78 417.19L133 417.62L134.24 418.01L135.5 418.35L136.79 418.64L138.09 418.88L139.4 419.06L140.74 419.2L142.09 419.28L143.45 419.31L144.81 419.28L146.16 419.2L147.49 419.06L148.81 418.88L150.11 418.64L151.39 418.35L152.66 418.01L153.9 417.62L155.12 417.19L156.32 416.7L157.5 416.18L158.65 415.61L159.77 415L160.87 414.34L161.94 413.65L162.99 412.91L164 412.14L164.98 411.33L165.93 410.48L166.84 409.6L167.73 408.69L168.57 407.74L169.38 406.76L170.16 405.74L170.89 404.7L171.58 403.63L172.24 402.53L172.85 401.41L173.42 400.25L173.95 399.08L174.43 397.88L174.86 396.66L175.25 395.42L175.59 394.15L175.88 392.87L176.12 391.57L176.31 390.25L176.44 388.92L176.52 387.57L176.55 386.21L176.52 384.84L176.44 383.5L176.31 382.16L176.12 380.84L175.88 379.54L175.59 378.26L175.25 377L174.86 375.76L174.43 374.53L173.95 373.33L173.42 372.16L172.85 371.01L172.24 369.88L171.58 368.78L170.89 367.71L170.16 366.67L169.38 365.66L168.57 364.68L167.73 363.73L166.84 362.81L165.93 361.93L164.98 361.08L164 360.27L162.99 359.5L161.94 358.77L160.87 358.07L159.77 357.42L158.65 356.8L157.5 356.23L156.32 355.71L155.12 355.23L153.9 354.79L152.66 354.41L151.39 354.07L150.11 353.78L148.81 353.54L147.49 353.35L146.16 353.21L144.81 353.13L143.45 353.1L142.09 353.13L140.74 353.21ZM493.84 353.21L492.51 353.35L491.19 353.54L489.89 353.78L488.61 354.07L487.34 354.41L486.1 354.79L484.88 355.23L483.68 355.71L482.5 356.23L481.35 356.8L480.23 357.42L479.13 358.07L478.06 358.77L477.01 359.5L476 360.27L475.02 361.08L474.07 361.93L473.16 362.81L472.27 363.73L471.43 364.68L470.62 365.66L469.84 366.67L469.11 367.71L468.42 368.78L467.76 369.88L467.15 371.01L466.58 372.16L466.05 373.33L465.57 374.53L465.14 375.76L464.75 377L464.41 378.26L464.12 379.54L463.88 380.84L463.69 382.16L463.56 383.5L463.48 384.84L463.45 386.21L463.48 387.57L463.56 388.92L463.69 390.25L463.88 391.57L464.12 392.87L464.41 394.15L464.75 395.42L465.14 396.66L465.57 397.88L466.05 399.08L466.58 400.25L467.15 401.41L467.76 402.53L468.42 403.63L469.11 404.7L469.84 405.74L470.62 406.76L471.43 407.74L472.27 408.69L473.16 409.6L474.07 410.48L475.02 411.33L476 412.14L477.01 412.91L478.06 413.65L479.13 414.34L480.23 415L481.35 415.61L482.5 416.18L483.68 416.7L484.88 417.19L486.1 417.62L487.34 418.01L488.61 418.35L489.89 418.64L491.19 418.88L492.51 419.06L493.84 419.2L495.19 419.28L496.55 419.31L497.91 419.28L499.26 419.2L500.6 419.06L501.91 418.88L503.21 418.64L504.5 418.35L505.76 418.01L507 417.62L508.22 417.19L509.42 416.7L510.6 416.18L511.75 415.61L512.88 415L513.98 414.34L515.05 413.65L516.09 412.91L517.1 412.14L518.08 411.33L519.03 410.48L519.95 409.6L520.83 408.69L521.68 407.74L522.49 406.76L523.26 405.74L523.99 404.7L524.69 403.63L525.34 402.53L525.95 401.41L526.52 400.25L527.05 399.08L527.53 397.88L527.96 396.66L528.35 395.42L528.69 394.15L528.98 392.87L529.22 391.57L529.41 390.25L529.55 388.92L529.63 387.57L529.66 386.21L529.63 384.84L529.55 383.5L529.41 382.16L529.22 380.84L528.98 379.54L528.69 378.26L528.35 377L527.96 375.76L527.53 374.53L527.05 373.33L526.52 372.16L525.95 371.01L525.34 369.88L524.69 368.78L523.99 367.71L523.26 366.67L522.49 365.66L521.68 364.68L520.83 363.73L519.95 362.81L519.03 361.93L518.08 361.08L517.1 360.27L516.09 359.5L515.05 358.77L513.98 358.07L512.88 357.42L511.75 356.8L510.6 356.23L509.42 355.71L508.22 355.23L507 354.79L505.76 354.41L504.5 354.07L503.21 353.78L501.91 353.54L500.6 353.35L499.26 353.21L497.91 353.13L496.55 353.1L495.19 353.13L493.84 353.21ZM144.25 331.04L144.52 331.05L144.79 331.05L145.06 331.06L145.32 331.07L145.59 331.08L145.86 331.09L146.12 331.11L146.39 331.12L146.65 331.14L146.92 331.16L147.18 331.17L147.44 331.19L147.71 331.22L147.97 331.24L148.23 331.26L148.5 331.29L148.76 331.31L149.02 331.34L149.28 331.37L149.54 331.4L149.8 331.43L150.06 331.46L150.32 331.5L150.58 331.53L150.84 331.57L151.1 331.61L151.35 331.64L151.61 331.68L151.87 331.72L152.13 331.77L152.38 331.81L152.64 331.85L152.89 331.9L153.15 331.94L153.4 331.99L153.66 332.03L153.91 332.08L153.99 332.1L154.08 332.12L154.16 332.13L154.24 332.15L154.33 332.17L154.41 332.19L154.49 332.21L154.58 332.23L154.66 332.25L154.74 332.27L154.82 332.29L154.9 332.31L154.99 332.33L155.07 332.36L155.15 332.38L155.23 332.4L155.31 332.42L155.39 332.45L155.47 332.47L155.55 332.5L155.64 332.52L155.72 332.54L155.8 332.57L155.88 332.59L155.96 332.62L156.04 332.64L156.12 332.66L156.2 332.69L156.28 332.71L156.36 332.74L156.44 332.76L156.52 332.78L156.61 332.81L156.69 332.83L156.77 332.85L156.85 332.88L156.93 332.9L157.01 332.92L157.09 332.94L157.18 332.97L157.34 333.01L157.51 333.05L157.68 333.1L157.85 333.14L158.01 333.18L158.18 333.23L158.35 333.27L158.51 333.32L158.68 333.36L158.85 333.41L159.01 333.45L159.18 333.5L159.35 333.55L159.51 333.59L159.68 333.64L159.84 333.69L160.01 333.74L160.17 333.79L160.34 333.84L160.5 333.89L160.67 333.94L160.83 333.99L161 334.04L161.16 334.09L161.32 334.14L161.49 334.2L161.65 334.25L161.81 334.3L161.97 334.36L162.14 334.41L162.3 334.47L162.46 334.53L162.62 334.59L162.78 334.64L162.94 334.7L163.1 334.76L163.26 334.82L163.42 334.88L163.58 334.94L163.74 335.01L163.83 335.04L163.92 335.08L164.01 335.12L164.1 335.16L164.19 335.19L164.28 335.23L164.37 335.27L164.46 335.31L164.55 335.35L164.64 335.39L164.73 335.43L164.82 335.47L164.91 335.51L164.99 335.55L165.08 335.6L165.17 335.64L165.26 335.68L165.35 335.72L165.43 335.76L165.52 335.81L165.61 335.85L165.7 335.89L165.79 335.93L165.87 335.98L165.96 336.02L166.05 336.06L166.14 336.11L166.22 336.15L166.31 336.19L166.4 336.23L166.48 336.28L166.57 336.32L166.66 336.36L166.75 336.41L166.83 336.45L166.92 336.49L167.01 336.53L167.1 336.58L167.18 336.62L167.27 336.66L167.41 336.73L167.55 336.8L167.69 336.87L167.83 336.93L167.97 337L168.11 337.07L168.25 337.14L168.39 337.21L168.53 337.28L168.67 337.35L168.81 337.42L168.94 337.49L169.08 337.56L169.22 337.63L169.36 337.7L169.5 337.78L169.63 337.85L169.77 337.92L169.91 337.99L170.04 338.07L170.18 338.14L170.31 338.21L170.45 338.29L170.59 338.36L170.72 338.44L170.86 338.51L170.99 338.59L171.13 338.66L171.26 338.74L171.39 338.82L171.53 338.9L171.66 338.97L171.8 339.05L171.93 339.13L172.06 339.21L172.19 339.29L172.33 339.37L172.46 339.45L172.59 339.54L172.72 339.62L172.81 339.67L172.89 339.73L172.98 339.78L173.07 339.84L173.15 339.89L173.24 339.95L173.32 340.01L173.41 340.06L173.49 340.12L173.57 340.17L173.66 340.23L173.74 340.29L173.83 340.34L173.91 340.4L173.99 340.46L174.08 340.51L174.16 340.57L174.24 340.63L174.33 340.69L174.41 340.74L174.49 340.8L174.57 340.86L174.66 340.92L174.74 340.98L174.82 341.03L174.9 341.09L174.98 341.15L175.07 341.21L175.15 341.27L175.23 341.33L175.31 341.39L175.39 341.45L175.48 341.51L175.56 341.57L175.64 341.63L175.72 341.68L175.8 341.74L175.88 341.8L175.96 341.87L176.04 341.93L176.17 342.02L176.29 342.11L176.41 342.2L176.53 342.29L176.65 342.38L176.77 342.47L176.89 342.56L177.01 342.66L177.13 342.75L177.25 342.84L177.37 342.93L177.49 343.03L177.6 343.12L177.72 343.21L177.84 343.31L177.96 343.4L178.08 343.5L178.19 343.59L178.31 343.69L178.43 343.78L178.54 343.88L178.66 343.98L178.77 344.07L178.89 344.17L179.01 344.27L179.12 344.36L179.23 344.46L179.35 344.56L179.46 344.66L179.58 344.76L179.69 344.86L179.8 344.96L179.92 345.06L180.03 345.16L180.14 345.26L180.25 345.36L180.37 345.46L180.48 345.56L180.59 345.66L180.7 345.77L180.78 345.83L180.85 345.9L180.92 345.97L181 346.04L181.07 346.11L181.15 346.18L181.22 346.25L181.29 346.32L181.37 346.38L181.44 346.45L181.51 346.52L181.59 346.59L181.66 346.66L181.73 346.73L181.81 346.8L181.88 346.87L181.95 346.94L182.03 347.01L182.1 347.08L182.17 347.15L182.24 347.22L182.32 347.29L182.39 347.36L182.46 347.43L182.53 347.5L182.6 347.57L182.67 347.64L182.75 347.71L182.82 347.78L182.89 347.85L182.96 347.93L183.03 348L183.1 348.07L183.17 348.14L183.24 348.21L183.31 348.29L183.38 348.36L183.45 348.43L183.52 348.51L183.59 348.58L183.7 348.69L183.8 348.81L183.91 348.92L184.01 349.03L184.11 349.15L184.22 349.26L184.32 349.38L184.42 349.49L184.52 349.61L184.62 349.72L184.72 349.84L184.82 349.96L184.92 350.07L185.02 350.19L185.12 350.31L185.22 350.42L185.32 350.54L185.42 350.66L185.52 350.78L185.62 350.9L185.72 351.02L185.81 351.14L185.91 351.26L186.01 351.38L186.1 351.5L186.2 351.62L186.3 351.74L186.39 351.86L186.49 351.98L186.58 352.1L186.68 352.22L186.77 352.34L186.87 352.47L186.96 352.59L187.05 352.71L187.15 352.83L187.24 352.95L187.33 353.08L187.43 353.2L187.52 353.32L187.58 353.4L187.64 353.48L187.7 353.56L187.76 353.63L187.82 353.71L187.87 353.79L187.93 353.87L187.99 353.94L188.05 354.02L188.11 354.1L188.17 354.17L188.23 354.25L188.29 354.33L188.35 354.41L188.41 354.48L188.47 354.56L188.53 354.64L188.59 354.72L188.65 354.79L188.71 354.87L188.77 354.95L188.83 355.03L188.88 355.1L188.94 355.18L189 355.26L189.06 355.34L189.12 355.42L189.17 355.5L189.23 355.57L189.29 355.65L189.34 355.73L189.4 355.81L189.46 355.89L189.51 355.97L189.57 356.05L189.62 356.13L189.68 356.21L189.73 356.29L189.78 356.38L189.84 356.46L189.93 356.6L190.02 356.74L190.11 356.88L190.19 357.02L190.28 357.17L190.37 357.31L190.46 357.45L190.54 357.6L190.63 357.74L190.72 357.89L190.8 358.03L190.89 358.18L190.97 358.32L191.06 358.47L191.14 358.61L191.22 358.76L191.31 358.91L191.39 359.06L191.47 359.2L191.55 359.35L191.63 359.5L191.72 359.65L191.8 359.8L191.88 359.94L191.96 360.09L192.03 360.24L192.11 360.39L192.19 360.54L192.27 360.69L192.35 360.84L192.43 360.99L192.5 361.14L192.58 361.29L192.65 361.44L192.73 361.59L192.81 361.75L192.88 361.9L192.96 362.05L193.03 362.2L193.1 362.35L193.14 362.43L193.18 362.5L193.22 362.58L193.26 362.65L193.3 362.73L193.34 362.8L193.38 362.88L193.42 362.95L193.47 363.03L193.51 363.1L193.55 363.18L193.6 363.25L193.64 363.33L193.68 363.4L193.73 363.48L193.77 363.55L193.86 363.7L193.91 363.77L193.95 363.85L193.99 363.92L194.04 364L194.08 364.07L194.13 364.15L194.17 364.22L194.21 364.3L194.25 364.37L194.3 364.45L194.34 364.53L194.38 364.6L194.42 364.68L194.46 364.75L194.5 364.83L194.54 364.91L194.57 364.98L194.61 365.06L194.65 365.14L194.68 365.22L194.71 365.3L194.75 365.37L194.84 365.59L194.93 365.82L195.02 366.04L195.11 366.26L195.2 366.48L195.29 366.71L195.38 366.93L195.48 367.16L195.57 367.38L195.65 367.61L195.74 367.83L195.83 368.06L195.92 368.28L196.01 368.51L196.1 368.74L196.18 368.97L196.27 369.2L196.35 369.42L196.44 369.65L196.52 369.88L196.6 370.11L196.68 370.34L196.76 370.57L196.84 370.81L196.92 371.04L196.99 371.27L197.07 371.5L197.14 371.74L197.21 371.97L197.28 372.2L197.35 372.44L197.42 372.67L197.48 372.91L197.55 373.14L197.61 373.38L197.67 373.62L197.73 373.85L197.79 374.09L197.84 374.33L197.89 374.57L197.9 374.58L197.9 374.6L197.91 374.61L197.92 374.62L197.94 374.64L197.95 374.65L197.97 374.67L197.99 374.68L198 374.7L198.02 374.71L198.05 374.73L198.07 374.74L198.09 374.75L198.12 374.77L198.14 374.78L198.17 374.8L198.19 374.81L198.22 374.82L198.25 374.84L198.27 374.85L198.3 374.87L198.33 374.88L198.35 374.89L198.38 374.91L198.4 374.92L198.43 374.94L198.45 374.95L198.47 374.97L198.49 374.98L198.51 374.99L198.53 375.01L198.55 375.02L198.56 375.04L198.58 375.05L198.59 375.07L198.6 375.08L198.61 375.09L198.62 375.11L198.62 375.12L198.62 375.14L198.62 375.17L441.38 375.17L441.38 375.14L441.38 375.12L441.38 375.11L441.39 375.09L441.4 375.08L441.41 375.07L441.42 375.05L441.44 375.04L441.45 375.02L441.47 375.01L441.49 374.99L441.51 374.98L441.53 374.97L441.55 374.95L441.57 374.94L441.6 374.92L441.62 374.91L441.65 374.89L441.67 374.88L441.7 374.87L441.73 374.85L441.75 374.84L441.78 374.82L441.8 374.81L441.83 374.79L441.86 374.78L441.88 374.76L441.9 374.75L441.93 374.74L441.95 374.72L441.97 374.71L441.99 374.69L442.01 374.68L442.03 374.66L442.04 374.65L442.06 374.63L442.07 374.62L442.08 374.6L442.09 374.59L442.09 374.57L442.1 374.55L442.15 374.32L442.21 374.08L442.27 373.84L442.33 373.61L442.39 373.37L442.46 373.14L442.53 372.9L442.6 372.67L442.68 372.43L442.76 372.2L442.83 371.96L442.91 371.73L443 371.5L443.08 371.27L443.17 371.03L443.25 370.8L443.34 370.57L443.43 370.34L443.52 370.11L443.62 369.88L443.71 369.65L443.8 369.42L443.9 369.19L443.99 368.97L444.09 368.74L444.19 368.51L444.28 368.28L444.38 368.06L444.48 367.83L444.57 367.61L444.67 367.38L444.77 367.16L444.86 366.93L444.96 366.71L445.05 366.48L445.15 366.26L445.24 366.04L445.33 365.82L445.43 365.59L445.52 365.37L445.55 365.29L445.58 365.22L445.62 365.14L445.65 365.06L445.69 364.98L445.72 364.9L445.76 364.82L445.79 364.75L445.83 364.67L445.87 364.59L445.9 364.52L445.94 364.44L445.98 364.36L446.02 364.29L446.05 364.21L446.09 364.14L446.13 364.06L446.17 363.98L446.21 363.91L446.25 363.83L446.29 363.76L446.33 363.68L446.37 363.61L446.41 363.53L446.45 363.46L446.49 363.38L446.53 363.31L446.56 363.23L446.6 363.15L446.64 363.08L446.68 363L446.72 362.93L446.76 362.85L446.8 362.78L446.84 362.7L446.88 362.62L446.92 362.55L446.95 362.47L446.99 362.39L447.03 362.32L447.1 362.17L447.17 362.01L447.25 361.86L447.32 361.71L447.39 361.56L447.47 361.41L447.54 361.26L447.62 361.11L447.69 360.96L447.77 360.81L447.84 360.66L447.92 360.51L447.99 360.36L448.07 360.22L448.14 360.07L448.22 359.92L448.3 359.77L448.38 359.62L448.45 359.48L448.53 359.33L448.61 359.18L448.69 359.04L448.77 358.89L448.85 358.74L448.93 358.6L449.01 358.45L449.09 358.31L449.17 358.16L449.26 358.02L449.34 357.88L449.42 357.73L449.51 357.59L449.59 357.45L449.68 357.3L449.76 357.16L449.85 357.02L449.94 356.88L450.03 356.74L450.12 356.6L450.21 356.46L450.26 356.38L450.31 356.29L450.37 356.21L450.42 356.13L450.48 356.05L450.53 355.97L450.59 355.89L450.64 355.81L450.7 355.73L450.75 355.65L450.81 355.57L450.87 355.49L450.92 355.41L450.98 355.34L451.04 355.26L451.09 355.18L451.15 355.1L451.21 355.02L451.27 354.94L451.33 354.86L451.38 354.79L451.44 354.71L451.5 354.63L451.56 354.55L451.62 354.48L451.68 354.4L451.74 354.32L451.79 354.24L451.85 354.17L451.91 354.09L451.97 354.01L452.09 353.86L452.15 353.78L452.21 353.7L452.27 353.62L452.33 353.55L452.38 353.47L452.44 353.39L452.5 353.31L452.59 353.19L452.69 353.07L452.78 352.94L452.87 352.82L452.97 352.7L453.06 352.58L453.15 352.45L453.25 352.33L453.34 352.21L453.44 352.09L453.53 351.97L453.63 351.85L453.72 351.73L453.82 351.61L453.91 351.49L454.01 351.37L454.1 351.25L454.2 351.13L454.3 351.01L454.39 350.89L454.49 350.77L454.59 350.65L454.69 350.53L454.78 350.42L454.88 350.3L454.98 350.18L455.08 350.06L455.18 349.95L455.28 349.83L455.38 349.72L455.48 349.6L455.58 349.49L455.68 349.37L455.79 349.26L455.89 349.14L455.99 349.03L456.1 348.92L456.2 348.8L456.3 348.69L456.41 348.58L456.48 348.51L456.55 348.43L456.62 348.36L456.69 348.29L456.76 348.21L456.83 348.14L456.9 348.07L456.97 348L457.04 347.93L457.11 347.85L457.18 347.78L457.25 347.71L457.32 347.64L457.39 347.57L457.47 347.5L457.54 347.43L457.61 347.36L457.68 347.29L457.75 347.22L457.82 347.15L457.9 347.08L457.97 347.01L458.04 346.94L458.11 346.87L458.19 346.8L458.26 346.73L458.33 346.66L458.4 346.59L458.48 346.52L458.55 346.45L458.62 346.38L458.7 346.32L458.77 346.25L458.84 346.18L458.92 346.11L458.99 346.04L459.07 345.97L459.14 345.9L459.21 345.83L459.29 345.77L459.4 345.66L459.51 345.56L459.62 345.46L459.74 345.36L459.85 345.26L459.96 345.16L460.08 345.06L460.19 344.96L460.3 344.86L460.42 344.76L460.53 344.66L460.64 344.56L460.76 344.46L460.87 344.36L460.99 344.27L461.1 344.17L461.22 344.07L461.33 343.98L461.45 343.88L461.57 343.78L461.68 343.69L461.8 343.59L461.92 343.5L462.03 343.4L462.15 343.31L462.27 343.21L462.39 343.12L462.51 343.03L462.62 342.93L462.74 342.84L462.86 342.75L462.98 342.66L463.1 342.56L463.22 342.47L463.34 342.38L463.46 342.29L463.58 342.2L463.7 342.11L463.82 342.02L463.94 341.93L464.03 341.87L464.11 341.81L464.19 341.75L464.27 341.69L464.35 341.63L464.43 341.57L464.51 341.51L464.59 341.45L464.68 341.39L464.76 341.33L464.84 341.27L464.92 341.21L465 341.16L465.08 341.1L465.16 341.04L465.25 340.98L465.33 340.92L465.41 340.86L465.49 340.81L465.58 340.75L465.66 340.69L465.74 340.63L465.82 340.58L465.91 340.52L465.99 340.46L466.07 340.41L466.15 340.35L466.24 340.29L466.32 340.24L466.41 340.18L466.49 340.12L466.57 340.07L466.66 340.01L466.74 339.96L466.83 339.9L466.91 339.85L467 339.79L467.08 339.74L467.17 339.68L467.26 339.63L467.39 339.55L467.52 339.47L467.65 339.38L467.78 339.3L467.92 339.22L468.05 339.14L468.18 339.06L468.32 338.98L468.45 338.91L468.59 338.83L468.72 338.75L468.85 338.67L468.99 338.6L469.12 338.52L469.26 338.44L469.4 338.37L469.53 338.29L469.67 338.22L469.8 338.15L469.94 338.07L470.08 338L470.21 337.93L470.35 337.85L470.49 337.78L470.63 337.71L470.77 337.64L470.9 337.56L471.04 337.49L471.18 337.42L471.32 337.35L471.46 337.28L471.6 337.21L471.74 337.14L471.88 337.07L472.02 337L472.16 336.94L472.3 336.87L472.44 336.8L472.58 336.73L472.72 336.66L472.8 336.62L472.89 336.58L472.98 336.53L473.07 336.49L473.15 336.45L473.24 336.41L473.33 336.36L473.42 336.32L473.5 336.28L473.68 336.19L473.76 336.15L473.85 336.11L473.94 336.07L474.02 336.02L474.11 335.98L474.2 335.94L474.29 335.9L474.37 335.85L474.46 335.81L474.55 335.77L474.64 335.73L474.72 335.69L474.81 335.64L474.9 335.6L474.99 335.56L475.07 335.52L475.16 335.48L475.25 335.44L475.34 335.4L475.43 335.36L475.52 335.32L475.61 335.28L475.7 335.24L475.79 335.2L475.88 335.17L475.97 335.13L476.06 335.09L476.15 335.05L476.24 335.02L476.4 334.96L476.56 334.89L476.72 334.83L476.88 334.77L477.04 334.71L477.2 334.65L477.36 334.6L477.52 334.54L477.68 334.48L477.84 334.43L478.01 334.37L478.17 334.32L478.33 334.26L478.49 334.21L478.66 334.16L478.82 334.11L478.99 334.05L479.15 334L479.32 333.95L479.48 333.9L479.65 333.85L479.81 333.8L479.98 333.75L480.14 333.71L480.31 333.66L480.47 333.61L480.64 333.56L480.81 333.52L480.97 333.47L481.14 333.42L481.31 333.38L481.47 333.33L481.64 333.29L481.81 333.24L481.97 333.2L482.14 333.15L482.31 333.11L482.48 333.06L482.65 333.02L482.81 332.98L482.9 332.95L482.98 332.93L483.06 332.91L483.14 332.89L483.22 332.87L483.3 332.84L483.38 332.82L483.46 332.8L483.55 332.77L483.63 332.75L483.71 332.72L483.79 332.7L483.87 332.68L483.95 332.65L484.03 332.63L484.11 332.61L484.19 332.58L484.27 332.56L484.35 332.53L484.43 332.51L484.51 332.49L484.59 332.46L484.68 332.44L484.76 332.42L484.84 332.39L484.92 332.37L485 332.35L485.08 332.33L485.16 332.31L485.24 332.28L485.33 332.26L485.41 332.24L485.49 332.22L485.57 332.2L485.65 332.18L485.74 332.16L485.82 332.15L485.9 332.13L485.99 332.11L486.07 332.09L486.32 332.04L486.58 332L486.84 331.95L487.09 331.9L487.35 331.86L487.6 331.81L487.86 331.77L488.12 331.73L488.38 331.69L488.63 331.65L488.89 331.61L489.15 331.57L489.41 331.54L489.67 331.5L489.93 331.47L490.19 331.43L490.45 331.4L490.71 331.37L490.97 331.34L491.24 331.32L491.5 331.29L491.76 331.26L492.02 331.24L492.29 331.22L492.55 331.2L492.81 331.17L493.08 331.16L493.34 331.14L493.61 331.12L493.87 331.11L494.14 331.09L494.41 331.08L494.67 331.07L494.94 331.06L495.21 331.05L495.48 331.05L495.74 331.04L496.01 331.04L496.28 331.04L496.55 331.03L496.82 331.04L497.09 331.04L497.36 331.04L497.63 331.05L497.9 331.05L498.16 331.06L498.43 331.07L498.7 331.08L498.96 331.09L499.23 331.11L499.49 331.12L499.76 331.14L500.02 331.16L500.29 331.17L500.55 331.2L500.82 331.22L501.08 331.24L501.34 331.26L501.61 331.29L501.87 331.32L502.13 331.34L502.39 331.37L502.65 331.4L502.91 331.43L503.17 331.47L503.43 331.5L503.69 331.54L503.95 331.57L504.21 331.61L504.47 331.65L504.73 331.69L504.98 331.73L505.24 331.77L505.5 331.81L505.76 331.86L506.01 331.9L506.27 331.95L506.52 332L506.78 332.04L507.03 332.09L507.12 332.11L507.2 332.13L507.29 332.15L507.37 332.16L507.45 332.18L507.54 332.2L507.62 332.22L507.7 332.24L507.78 332.26L507.86 332.28L507.95 332.31L508.03 332.33L508.11 332.35L508.19 332.37L508.27 332.39L508.35 332.42L508.43 332.44L508.51 332.46L508.59 332.49L508.67 332.51L508.75 332.53L508.84 332.56L508.92 332.58L509 332.61L509.08 332.63L509.16 332.65L509.24 332.68L509.32 332.7L509.4 332.72L509.48 332.75L509.56 332.77L509.64 332.8L509.72 332.82L509.8 332.84L509.88 332.87L509.96 332.89L510.04 332.91L510.13 332.93L510.21 332.95L510.29 332.98L510.46 333.02L510.63 333.06L510.79 333.11L510.96 333.15L511.13 333.19L511.3 333.24L511.46 333.28L511.63 333.33L511.8 333.37L511.96 333.42L512.13 333.46L512.3 333.51L512.46 333.56L512.63 333.6L512.8 333.65L512.96 333.7L513.13 333.75L513.29 333.8L513.46 333.84L513.62 333.89L513.79 333.94L513.95 333.99L514.12 334.05L514.28 334.1L514.44 334.15L514.61 334.2L514.77 334.26L514.93 334.31L515.1 334.37L515.26 334.42L515.42 334.48L515.58 334.53L515.75 334.59L515.91 334.65L516.07 334.71L516.23 334.77L516.39 334.83L516.55 334.89L516.71 334.95L516.87 335.02L516.96 335.05L517.05 335.09L517.14 335.13L517.23 335.17L517.32 335.2L517.41 335.24L517.5 335.28L517.59 335.32L517.68 335.36L517.76 335.4L517.85 335.44L517.94 335.48L518.03 335.52L518.12 335.56L518.2 335.6L518.29 335.64L518.38 335.69L518.47 335.73L518.56 335.77L518.64 335.81L518.73 335.85L518.82 335.9L518.9 335.94L518.99 335.98L519.08 336.02L519.17 336.07L519.25 336.11L519.34 336.15L519.43 336.19L519.6 336.28L519.69 336.32L519.77 336.36L519.86 336.41L519.95 336.45L520.04 336.49L520.12 336.53L520.21 336.58L520.3 336.62L520.39 336.66L520.53 336.73L520.67 336.8L520.81 336.87L520.95 336.94L521.09 337L521.23 337.07L521.37 337.14L521.51 337.21L521.65 337.28L521.78 337.35L521.92 337.42L522.06 337.49L522.2 337.56L522.34 337.64L522.48 337.71L522.61 337.78L522.75 337.85L522.89 337.93L523.03 338L523.16 338.07L523.3 338.15L523.44 338.22L523.57 338.29L523.71 338.37L523.84 338.44L523.98 338.52L524.11 338.6L524.25 338.67L524.38 338.75L524.52 338.83L524.65 338.91L524.79 338.98L524.92 339.06L525.05 339.14L525.19 339.22L525.32 339.3L525.45 339.38L525.58 339.47L525.72 339.55L525.85 339.63L525.93 339.68L526.02 339.74L526.11 339.79L526.19 339.85L526.28 339.9L526.36 339.96L526.45 340.01L526.53 340.07L526.61 340.12L526.7 340.18L526.78 340.23L526.87 340.29L526.95 340.35L527.03 340.4L527.11 340.46L527.2 340.52L527.28 340.57L527.36 340.63L527.45 340.69L527.53 340.74L527.61 340.8L527.69 340.86L527.77 340.92L527.86 340.98L527.94 341.03L528.02 341.09L528.1 341.15L528.18 341.21L528.27 341.27L528.35 341.33L528.43 341.39L528.51 341.45L528.59 341.51L528.67 341.57L528.75 341.63L528.83 341.68L528.92 341.74L529 341.8L529.08 341.87L529.16 341.93L529.28 342.02L529.4 342.11L529.52 342.2L529.64 342.29L529.76 342.38L529.88 342.47L530 342.56L530.12 342.66L530.24 342.75L530.36 342.84L530.48 342.93L530.6 343.03L530.72 343.12L530.84 343.21L530.95 343.31L531.07 343.4L531.19 343.5L531.31 343.59L531.42 343.69L531.54 343.78L531.66 343.88L531.77 343.98L531.89 344.07L532 344.17L532.12 344.27L532.23 344.36L532.35 344.46L532.46 344.56L532.58 344.66L532.69 344.76L532.81 344.86L532.92 344.96L533.03 345.06L533.14 345.16L533.26 345.26L533.37 345.36L533.48 345.46L533.59 345.56L533.7 345.66L533.82 345.77L533.89 345.83L533.96 345.9L534.04 345.97L534.11 346.04L534.19 346.11L534.26 346.18L534.33 346.25L534.41 346.32L534.48 346.38L534.56 346.45L534.63 346.52L534.7 346.59L534.78 346.66L534.85 346.73L534.92 346.8L534.99 346.87L535.07 346.94L535.14 347.01L535.21 347.08L535.29 347.15L535.36 347.22L535.43 347.29L535.5 347.36L535.57 347.43L535.65 347.5L535.72 347.57L535.79 347.64L535.86 347.71L535.93 347.78L536 347.85L536.07 347.93L536.14 348L536.22 348.07L536.29 348.14L536.36 348.21L536.43 348.29L536.5 348.36L536.57 348.43L536.64 348.51L536.71 348.58L536.81 348.69L536.92 348.81L537.02 348.92L537.12 349.03L537.23 349.15L537.33 349.26L537.43 349.38L537.53 349.49L537.63 349.61L537.74 349.72L537.84 349.84L537.94 349.95L538.04 350.07L538.14 350.19L538.24 350.3L538.33 350.42L538.43 350.54L538.53 350.66L538.63 350.77L538.73 350.89L538.82 351.01L538.92 351.13L539.02 351.25L539.11 351.37L539.21 351.49L539.31 351.61L539.4 351.73L539.5 351.85L539.59 351.97L539.69 352.09L539.78 352.21L539.88 352.33L539.97 352.46L540.06 352.58L540.16 352.7L540.25 352.82L540.34 352.94L540.44 353.07L540.53 353.19L540.62 353.31L540.68 353.39L540.74 353.47L540.8 353.55L540.86 353.62L540.92 353.7L540.98 353.78L541.04 353.86L541.1 353.93L541.16 354.01L541.22 354.09L541.34 354.24L541.4 354.32L541.46 354.4L541.52 354.48L541.58 354.55L541.64 354.63L541.7 354.71L541.76 354.79L541.82 354.86L541.88 354.94L541.93 355.02L541.99 355.1L542.05 355.18L542.11 355.26L542.17 355.34L542.23 355.41L542.29 355.49L542.34 355.57L542.4 355.65L542.46 355.73L542.51 355.81L542.57 355.89L542.63 355.97L542.68 356.05L542.74 356.13L542.79 356.21L542.84 356.29L542.9 356.38L542.95 356.46L543.04 356.6L543.13 356.74L543.22 356.88L543.31 357.02L543.4 357.17L543.48 357.31L543.57 357.45L543.66 357.59L543.75 357.74L543.83 357.88L543.92 358.03L544 358.17L544.09 358.32L544.17 358.46L544.25 358.61L544.34 358.75L544.42 358.9L544.5 359.04L544.58 359.19L544.67 359.34L544.75 359.48L544.83 359.63L544.91 359.78L544.99 359.93L545.07 360.08L545.15 360.22L545.22 360.37L545.3 360.52L545.38 360.67L545.46 360.82L545.53 360.97L545.61 361.12L545.69 361.27L545.76 361.42L545.84 361.57L545.91 361.72L545.99 361.87L546.06 362.02L546.13 362.17L546.21 362.32L546.24 362.39L546.28 362.47L546.32 362.55L546.36 362.62L546.4 362.7L546.44 362.78L546.49 362.85L546.53 362.93L546.57 363L546.61 363.08L546.66 363.15L546.7 363.23L546.75 363.31L546.79 363.38L546.84 363.46L546.88 363.53L546.92 363.61L546.97 363.68L547.01 363.76L547.06 363.83L547.1 363.91L547.15 363.98L547.19 364.06L547.24 364.14L547.28 364.21L547.32 364.29L547.37 364.36L547.41 364.44L547.45 364.52L547.49 364.59L547.53 364.67L547.57 364.75L547.61 364.82L547.65 364.9L547.69 364.98L547.72 365.06L547.76 365.14L547.8 365.22L547.83 365.29L547.86 365.37L547.95 365.59L548.04 365.82L548.13 366.04L548.22 366.26L548.31 366.48L548.4 366.71L548.49 366.93L548.58 367.15L548.67 367.38L548.76 367.6L548.85 367.83L548.94 368.06L549.03 368.28L549.12 368.51L549.2 368.74L549.29 368.96L549.37 369.19L549.46 369.42L549.54 369.65L549.62 369.88L549.71 370.11L549.79 370.34L549.87 370.57L549.94 370.8L550.02 371.03L550.1 371.26L550.17 371.49L550.24 371.73L550.32 371.96L550.39 372.19L550.46 372.43L550.52 372.66L550.59 372.9L550.65 373.13L550.71 373.37L550.77 373.6L550.83 373.84L550.89 374.08L550.94 374.32L551 374.55L551 374.57L551.01 374.58L551.02 374.6L551.03 374.61L551.04 374.63L551.05 374.64L551.07 374.66L551.09 374.67L551.11 374.69L551.13 374.7L551.15 374.72L551.17 374.73L551.2 374.75L551.22 374.76L551.25 374.77L551.27 374.79L551.3 374.8L551.32 374.82L551.38 374.85L551.4 374.86L551.43 374.88L551.46 374.89L551.48 374.9L551.51 374.92L551.53 374.93L551.55 374.95L551.58 374.96L551.6 374.98L551.62 374.99L551.64 375.01L551.65 375.02L551.67 375.04L551.68 375.05L551.69 375.07L551.7 375.08L551.71 375.09L551.72 375.11L551.72 375.12L551.72 375.14L551.72 375.17L617.93 375.17L617.93 350.02L494.76 308.97L33.1 308.97L32.65 308.97L32.2 309L31.76 309.05L31.32 309.11L30.88 309.19L30.46 309.29L30.04 309.4L29.62 309.53L29.21 309.67L28.81 309.83L28.42 310.01L28.04 310.2L27.66 310.4L27.3 310.62L26.94 310.85L26.59 311.1L26.26 311.35L25.93 311.62L25.61 311.9L25.31 312.2L25.01 312.5L24.73 312.82L24.46 313.15L24.2 313.48L23.96 313.83L23.73 314.19L23.51 314.56L23.3 314.93L23.11 315.31L22.94 315.71L22.78 316.11L22.63 316.51L22.5 316.93L22.39 317.35L22.29 317.78L22.21 318.21L22.15 318.65L22.11 319.1L22.08 319.55L22.07 320L22.07 364.14L22.08 364.59L22.11 365.04L22.15 365.49L22.21 365.93L22.29 366.36L22.39 366.79L22.5 367.21L22.63 367.62L22.78 368.03L22.94 368.43L23.11 368.82L23.3 369.21L23.51 369.58L23.73 369.95L23.96 370.31L24.2 370.65L24.46 370.99L24.73 371.32L25.01 371.63L25.31 371.94L25.61 372.23L25.93 372.52L26.26 372.79L26.59 373.04L26.94 373.29L27.3 373.52L27.66 373.74L28.04 373.94L28.42 374.13L28.81 374.3L29.21 374.46L29.62 374.61L30.04 374.74L30.46 374.85L30.88 374.95L31.32 375.03L31.76 375.09L32.2 375.14L32.65 375.16L33.1 375.17L88.28 375.17L88.28 375.14L88.28 375.12L88.28 375.11L88.29 375.09L88.3 375.08L88.31 375.07L88.32 375.05L88.33 375.04L88.35 375.02L88.36 375.01L88.38 374.99L88.4 374.98L88.42 374.97L88.45 374.95L88.47 374.94L88.49 374.92L88.52 374.91L88.54 374.9L88.57 374.88L88.59 374.87L88.62 374.85L88.65 374.84L88.67 374.83L88.7 374.81L88.72 374.8L88.75 374.78L88.77 374.77L88.79 374.76L88.82 374.74L88.84 374.73L88.86 374.72L88.88 374.7L88.89 374.69L88.91 374.67L88.93 374.66L88.94 374.65L88.95 374.63L88.96 374.62L88.96 374.6L88.97 374.59L88.97 374.58L89.02 374.34L89.08 374.1L89.14 373.86L89.2 373.63L89.26 373.39L89.33 373.15L89.4 372.92L89.47 372.68L89.55 372.45L89.62 372.21L89.7 371.98L89.78 371.75L89.86 371.51L89.95 371.28L90.03 371.05L90.12 370.82L90.21 370.59L90.3 370.35L90.39 370.12L90.48 369.89L90.58 369.66L90.67 369.43L90.76 369.21L90.86 368.98L90.96 368.75L91.05 368.52L91.15 368.3L91.25 368.07L91.34 367.84L91.44 367.62L91.64 367.17L91.73 366.94L91.83 366.72L91.92 366.5L92.02 366.27L92.11 366.05L92.21 365.83L92.3 365.61L92.39 365.38L92.42 365.31L92.46 365.23L92.49 365.15L92.52 365.07L92.56 365L92.59 364.92L92.63 364.84L92.67 364.77L92.7 364.69L92.74 364.61L92.77 364.54L92.81 364.46L92.85 364.39L92.89 364.31L92.92 364.24L92.96 364.16L93 364.09L93.04 364.01L93.08 363.94L93.12 363.86L93.16 363.79L93.2 363.71L93.23 363.64L93.27 363.56L93.31 363.49L93.35 363.41L93.39 363.34L93.43 363.26L93.47 363.19L93.51 363.11L93.55 363.04L93.59 362.97L93.63 362.89L93.66 362.81L93.7 362.74L93.74 362.66L93.78 362.59L93.82 362.51L93.86 362.44L93.89 362.36L93.97 362.21L94.04 362.06L94.11 361.91L94.19 361.75L94.26 361.6L94.34 361.45L94.41 361.3L94.49 361.15L94.56 361L94.64 360.85L94.71 360.7L94.79 360.55L94.86 360.4L94.94 360.25L95.02 360.1L95.09 359.95L95.17 359.8L95.25 359.65L95.33 359.51L95.41 359.36L95.48 359.21L95.56 359.06L95.64 358.92L95.72 358.77L95.81 358.62L95.89 358.48L95.97 358.33L96.05 358.19L96.13 358.04L96.22 357.9L96.3 357.75L96.39 357.61L96.47 357.46L96.56 357.32L96.65 357.18L96.73 357.03L96.82 356.89L96.91 356.75L97 356.61L97.09 356.47L97.15 356.39L97.2 356.31L97.25 356.22L97.31 356.14L97.36 356.06L97.42 355.98L97.47 355.9L97.53 355.82L97.58 355.74L97.64 355.66L97.69 355.59L97.75 355.51L97.81 355.43L97.86 355.35L97.92 355.27L97.98 355.19L98.04 355.11L98.09 355.04L98.15 354.96L98.21 354.88L98.27 354.8L98.33 354.73L98.38 354.65L98.44 354.57L98.5 354.49L98.56 354.42L98.62 354.34L98.68 354.26L98.73 354.19L98.85 354.03L98.91 353.95L98.97 353.88L99.03 353.8L99.09 353.72L99.14 353.65L99.2 353.57L99.26 353.49L99.32 353.41L99.38 353.34L99.47 353.21L99.56 353.09L99.66 352.96L99.75 352.84L99.84 352.72L99.94 352.59L100.03 352.47L100.12 352.35L100.22 352.23L100.31 352.11L100.41 351.99L100.5 351.86L100.6 351.74L100.69 351.62L100.79 351.5L100.89 351.38L100.98 351.26L101.08 351.14L101.18 351.02L101.27 350.9L101.37 350.79L101.47 350.67L101.57 350.55L101.67 350.43L101.76 350.31L101.86 350.2L101.96 350.08L102.06 349.96L102.16 349.85L102.26 349.73L102.37 349.62L102.47 349.5L102.57 349.39L102.67 349.27L102.77 349.16L102.88 349.04L102.98 348.93L103.08 348.82L103.19 348.7L103.29 348.59L103.36 348.52L103.43 348.44L103.5 348.37L103.57 348.3L103.64 348.23L103.71 348.15L103.78 348.08L103.85 348.01L103.92 347.94L104 347.87L104.07 347.79L104.14 347.72L104.21 347.65L104.28 347.58L104.35 347.51L104.42 347.44L104.49 347.37L104.57 347.3L104.64 347.23L104.71 347.16L104.78 347.09L104.85 347.02L104.93 346.95L105 346.88L105.07 346.81L105.14 346.74L105.22 346.67L105.29 346.6L105.36 346.53L105.44 346.46L105.51 346.4L105.58 346.33L105.66 346.26L105.73 346.19L105.8 346.12L105.88 346.05L105.95 345.98L106.03 345.91L106.1 345.85L106.17 345.78L106.29 345.67L106.4 345.57L106.51 345.47L106.62 345.37L106.74 345.27L106.85 345.17L106.96 345.07L107.07 344.97L107.19 344.87L107.3 344.77L107.42 344.67L107.53 344.57L107.64 344.47L107.76 344.37L107.87 344.28L107.99 344.18L108.1 344.08L108.22 343.99L108.34 343.89L108.45 343.79L108.57 343.7L108.69 343.6L108.8 343.51L108.92 343.41L109.04 343.32L109.15 343.23L109.27 343.13L109.39 343.04L109.51 342.94L109.63 342.85L109.75 342.76L109.87 342.67L109.99 342.57L110.11 342.48L110.23 342.39L110.35 342.3L110.47 342.21L110.59 342.12L110.71 342.03L110.83 341.94L110.91 341.88L110.99 341.82L111.08 341.76L111.16 341.7L111.24 341.64L111.32 341.58L111.4 341.52L111.49 341.46L111.57 341.4L111.65 341.34L111.73 341.28L111.81 341.22L111.89 341.16L111.98 341.1L112.06 341.04L112.14 340.99L112.22 340.93L112.31 340.87L112.39 340.81L112.47 340.75L112.55 340.7L112.64 340.64L112.72 340.58L112.8 340.52L112.88 340.47L112.97 340.41L113.05 340.35L113.13 340.3L113.22 340.24L113.3 340.18L113.39 340.13L113.47 340.07L113.55 340.02L113.64 339.96L113.72 339.91L113.81 339.85L113.89 339.79L113.98 339.74L114.07 339.69L114.15 339.63L114.28 339.55L114.42 339.47L114.55 339.38L114.68 339.3L114.81 339.22L114.95 339.14L115.08 339.06L115.21 338.99L115.35 338.91L115.48 338.83L115.61 338.75L115.75 338.68L115.88 338.6L116.02 338.52L116.15 338.45L116.29 338.37L116.42 338.3L116.56 338.22L116.7 338.15L116.83 338.08L116.97 338L117.1 337.93L117.24 337.86L117.38 337.79L117.52 337.72L117.65 337.64L117.79 337.57L117.93 337.5L118.07 337.43L118.21 337.36L118.35 337.29L118.48 337.22L118.62 337.15L118.76 337.08L118.9 337.01L119.04 336.95L119.18 336.88L119.32 336.81L119.46 336.74L119.6 336.67L119.69 336.63L119.78 336.59L119.87 336.54L119.95 336.5L120.04 336.46L120.13 336.41L120.22 336.37L120.3 336.33L120.39 336.28L120.48 336.24L120.56 336.2L120.65 336.15L120.74 336.11L120.83 336.07L120.91 336.03L121 335.98L121.09 335.94L121.18 335.9L121.26 335.85L121.35 335.81L121.44 335.77L121.53 335.73L121.62 335.69L121.7 335.65L121.79 335.6L121.88 335.56L121.97 335.52L122.06 335.48L122.15 335.44L122.23 335.4L122.32 335.36L122.41 335.32L122.5 335.28L122.59 335.24L122.68 335.2L122.77 335.17L122.86 335.13L122.95 335.09L123.04 335.05L123.13 335.02L123.29 334.96L123.45 334.89L123.61 334.83L123.77 334.77L123.93 334.71L124.09 334.65L124.25 334.6L124.42 334.54L124.58 334.48L124.74 334.43L124.9 334.37L125.06 334.32L125.23 334.26L125.39 334.21L125.55 334.15L125.71 334.1L125.88 334.05L126.04 334L126.21 333.95L126.37 333.9L126.54 333.85L126.7 333.8L126.87 333.75L127.03 333.7L127.2 333.65L127.36 333.61L127.53 333.56L127.69 333.51L127.86 333.47L128.03 333.42L128.19 333.37L128.36 333.33L128.53 333.28L128.69 333.24L128.86 333.19L129.03 333.15L129.2 333.11L129.36 333.06L129.53 333.02L129.7 332.98L129.78 332.95L129.86 332.93L129.95 332.91L130.03 332.89L130.11 332.87L130.19 332.84L130.27 332.82L130.35 332.8L130.44 332.77L130.52 332.75L130.6 332.72L130.68 332.7L130.76 332.68L130.84 332.65L131 332.61L131.08 332.58L131.16 332.56L131.24 332.53L131.32 332.51L131.4 332.49L131.49 332.46L131.57 332.44L131.65 332.42L131.73 332.39L131.81 332.37L131.89 332.35L131.97 332.33L132.05 332.31L132.14 332.28L132.22 332.26L132.3 332.24L132.38 332.22L132.46 332.2L132.55 332.18L132.63 332.16L132.71 332.15L132.8 332.13L132.88 332.11L132.97 332.09L133.22 332.04L133.48 332L133.73 331.95L133.99 331.9L134.24 331.86L134.5 331.81L134.76 331.77L135.02 331.73L135.27 331.69L135.53 331.65L135.79 331.61L136.05 331.57L136.31 331.54L136.57 331.5L136.83 331.47L137.09 331.43L137.35 331.4L137.61 331.37L137.87 331.34L138.14 331.32L138.4 331.29L138.66 331.26L138.92 331.24L139.19 331.22L139.45 331.2L139.72 331.17L139.98 331.16L140.24 331.14L140.51 331.12L140.78 331.11L141.04 331.09L141.31 331.08L141.57 331.07L141.84 331.06L142.11 331.05L142.38 331.05L142.64 331.04L142.91 331.04L143.18 331.04L143.45 331.03L143.72 331.04L143.99 331.04L144.25 331.04ZM286.9 286.9L460.1 286.9L369.14 226.25L368.73 225.98L368.31 225.72L367.9 225.46L367.48 225.21L367.05 224.97L366.63 224.73L366.2 224.5L365.76 224.27L365.33 224.06L364.89 223.85L364.45 223.64L364.01 223.44L363.56 223.25L363.11 223.07L362.66 222.89L362.21 222.72L361.75 222.56L361.3 222.4L360.84 222.25L360.37 222.1L359.91 221.97L359.44 221.84L358.97 221.71L358.5 221.6L358.03 221.49L357.56 221.39L357.08 221.29L356.61 221.2L356.13 221.12L355.65 221.05L355.17 220.98L354.68 220.92L354.2 220.86L353.71 220.82L353.23 220.78L352.74 220.75L352.25 220.72L351.76 220.7L351.27 220.69L350.78 220.69L286.9 220.69L286.9 286.9ZM170.09 220.7L169.45 220.74L168.81 220.79L168.16 220.87L167.5 220.98L166.84 221.1L166.18 221.25L165.51 221.42L164.83 221.62L164.15 221.83L163.46 222.07L162.76 222.34L162.06 222.62L161.36 222.93L160.65 223.26L159.93 223.62L159.21 223.99L158.49 224.39L157.76 224.82L157.02 225.26L156.28 225.73L155.53 226.22L154.77 226.74L154.01 227.28L153.25 227.84L152.48 228.42L151.7 229.03L150.92 229.65L150.13 230.31L149.34 230.98L148.55 231.68L147.74 232.4L146.93 233.14L146.12 233.91L145.3 234.7L144.47 235.51L143.64 236.34L142.81 237.2L141.97 238.08L141.12 238.98L117.16 286.9L264.83 286.9L264.83 220.69L170.73 220.69L170.09 220.7Z" id="aQAA6HFxc"></path><path d="M275.86 331.03C269.77 331.03 264.83 335.97 264.83 342.07C264.83 348.17 269.77 353.1 275.86 353.1C280.28 353.1 315.59 353.1 320 353.1C326.09 353.1 331.03 348.17 331.03 342.07C331.03 335.97 326.09 331.03 320 331.03C311.17 331.03 280.28 331.03 275.86 331.03Z" id="cKuoe9xRq"></path></defs><g><g><g><use xlink:href="#aQAA6HFxc" opacity="1" fill="#ffffff" fill-opacity="1"></use><g><use xlink:href="#aQAA6HFxc" opacity="1" fill-opacity="0" stroke="#000000" stroke-width="1" stroke-opacity="0"></use></g></g><g><use xlink:href="#cKuoe9xRq" opacity="1" fill="#c6c6c6" fill-opacity="1"></use><g><use xlink:href="#cKuoe9xRq" opacity="1" fill-opacity="0" stroke="#000000" stroke-width="1" stroke-opacity="0"></use></g></g></g></g></svg>